<?xml version="1.0" standalone="no"?>
<!DOCTYPE svg PUBLIC "-//W3C//DTD SVG 20010904//EN"
 "http://www.w3.org/TR/2001/REC-SVG-20010904/DTD/svg10.dtd">
<svg version="1.0" xmlns="http://www.w3.org/2000/svg"
 width="506.000000pt" height="607.000000pt" viewBox="0 0 506.000000 607.000000"
 preserveAspectRatio="xMidYMid meet">

<g transform="translate(0.000000,607.000000) scale(0.100000,-0.100000)"
fill="#000000" stroke="none">
<path d="M4103 5913 c15 -2 37 -2 50 0 12 2 0 4 -28 4 -27 0 -38 -2 -22 -4z"/>
<path d="M1480 5899 c-16 -5 1 -6 45 -2 39 3 72 7 74 9 8 8 -95 2 -119 -7z"/>
<path d="M3859 5893 c-13 -16 -12 -17 4 -4 9 7 17 15 17 17 0 8 -8 3 -21 -13z"/>
<path d="M3950 5906 c0 -2 7 -7 16 -10 8 -3 12 -2 9 4 -6 10 -25 14 -25 6z"/>
<path d="M1688 5893 c18 -2 45 -2 60 0 15 2 0 4 -33 4 -33 0 -45 -2 -27 -4z"/>
<path d="M1404 5874 c-18 -14 -18 -14 6 -3 31 14 36 19 24 19 -6 0 -19 -7 -30
-16z"/>
<path d="M1856 5866 c85 -31 124 -58 164 -110 18 -25 36 -46 38 -46 9 0 -32
56 -64 88 -37 36 -147 92 -179 91 -11 0 7 -10 41 -23z"/>
<path d="M3694 5874 c-19 -15 -19 -15 1 -6 11 5 27 12 35 15 13 5 13 6 -1 6
-8 1 -24 -6 -35 -15z"/>
<path d="M4244 5869 c16 -12 48 -49 72 -82 24 -33 44 -56 44 -52 0 18 -85 122
-113 138 l-32 19 29 -23z"/>
<path d="M1306 5809 c-38 -34 -53 -55 -49 -66 4 -11 2 -14 -5 -9 -13 8 -47
-38 -38 -53 3 -5 -3 -7 -14 -4 -11 3 -20 0 -20 -6 0 -6 -8 -11 -17 -11 -15 0
-16 2 -3 10 8 5 10 10 4 10 -19 0 -54 -59 -54 -91 0 -18 -8 -42 -17 -53 -13
-16 -11 -15 9 3 23 20 30 22 43 11 20 -16 26 -9 46 54 7 22 16 43 19 46 11 10
75 115 75 124 0 5 7 10 15 12 8 2 35 10 60 18 30 10 37 15 22 15 -13 1 -32 -4
-44 -10 -36 -19 -30 -1 9 25 20 14 32 26 26 26 -6 0 -36 -23 -67 -51z m-66
-99 c-6 -11 -13 -20 -16 -20 -2 0 0 9 6 20 6 11 13 20 16 20 2 0 0 -9 -6 -20z
m-80 -91 c0 -5 -7 -9 -15 -9 -15 0 -20 12 -9 23 8 8 24 -1 24 -14z"/>
<path d="M3644 5838 l-19 -23 23 19 c21 18 27 26 19 26 -2 0 -12 -10 -23 -22z"/>
<path d="M3808 5843 c-18 -21 -31 -43 -25 -43 2 0 13 14 25 30 25 33 24 41 0
13z"/>
<path d="M4320 5826 c0 -2 8 -10 18 -17 15 -13 16 -12 3 4 -13 16 -21 21 -21
13z"/>
<path d="M1600 5790 c8 -5 22 -10 30 -10 13 0 13 1 0 10 -8 5 -22 10 -30 10
-13 0 -13 -1 0 -10z"/>
<path d="M4360 5796 c0 -2 8 -10 18 -17 15 -13 16 -12 3 4 -13 16 -21 21 -21
13z"/>
<path d="M1925 5781 c17 -4 43 -16 58 -25 15 -10 27 -15 27 -12 0 13 -66 46
-90 45 -23 -1 -22 -2 5 -8z"/>
<path d="M3589 5773 c-13 -16 -12 -17 4 -4 16 13 21 21 13 21 -2 0 -10 -8 -17
-17z"/>
<path d="M4005 5758 c-2 -7 -6 -33 -8 -58 -2 -25 -14 -83 -26 -129 -12 -46
-20 -86 -17 -89 7 -6 26 43 26 66 0 9 7 37 14 62 11 37 15 41 21 25 10 -29 27
-63 21 -43 -14 50 -26 141 -21 158 4 11 4 20 0 20 -3 0 -7 -6 -10 -12z"/>
<path d="M4161 5758 c-1 -3 10 -29 24 -56 14 -28 25 -56 25 -63 1 -17 29 -68
30 -53 1 30 -77 200 -79 172z"/>
<path d="M3930 5686 c-6 -32 -9 -93 -6 -139 3 -45 6 -115 8 -154 l3 -72 -31
30 c-18 17 -40 48 -49 70 -25 54 -35 49 -28 -13 4 -36 2 -50 -5 -43 -5 6 -12
19 -14 30 -2 11 -11 21 -21 23 -17 3 -17 2 0 -25 25 -41 60 -83 68 -83 3 0 3
5 0 10 -8 13 -16 70 -10 70 2 0 25 -22 51 -50 26 -27 50 -50 54 -50 4 0 3 23
-1 52 -5 28 -6 55 -3 60 3 4 0 59 -6 122 -8 85 -8 124 1 160 6 26 9 49 6 52
-3 3 -10 -20 -17 -50z"/>
<path d="M4423 5724 c4 -4 2 -13 -3 -20 -6 -6 -9 -18 -8 -25 2 -8 -3 -13 -10
-11 -10 2 -10 -2 0 -20 6 -13 11 -30 10 -39 -3 -16 37 -93 44 -87 4 4 -18 68
-29 86 -10 15 16 16 44 1 14 -7 18 -16 13 -31 -4 -15 -2 -19 7 -16 9 3 13 17
11 41 -2 21 1 37 6 37 6 0 32 -24 58 -52 26 -29 37 -39 26 -22 -12 17 -28 37
-37 44 -11 9 -12 16 -4 26 6 7 9 25 7 41 -2 23 -9 29 -39 34 -31 5 -36 3 -31
-13 3 -12 -1 -18 -13 -18 -9 0 -19 9 -22 19 -3 11 -12 22 -21 26 -9 3 -13 3
-9 -1z m127 -34 c0 -5 -7 -10 -15 -10 -8 0 -15 5 -15 10 0 6 7 10 15 10 8 0
15 -4 15 -10z"/>
<path d="M3540 5700 c-6 -11 -8 -20 -6 -20 3 0 10 9 16 20 6 11 8 20 6 20 -3
0 -10 -9 -16 -20z"/>
<path d="M4376 5697 c3 -10 9 -15 12 -12 3 3 0 11 -7 18 -10 9 -11 8 -5 -6z"/>
<path d="M2060 5690 c0 -6 -4 -8 -10 -5 -6 4 -7 -1 -3 -11 4 -11 8 -13 11 -6
2 7 8 10 13 6 5 -3 9 -1 9 5 0 5 -4 13 -10 16 -5 3 -10 1 -10 -5z"/>
<path d="M3747 5693 c-4 -3 -7 -22 -7 -42 0 -20 -11 -71 -25 -114 -14 -43 -25
-94 -25 -114 0 -41 12 -38 16 4 7 69 28 134 41 128 12 -4 14 9 11 70 -2 41 -3
75 -4 75 0 0 -4 -3 -7 -7z"/>
<path d="M4098 5694 c-3 -5 0 -47 8 -94 7 -47 14 -88 14 -92 0 -3 -11 -5 -25
-3 -14 1 -25 -1 -25 -4 0 -4 -14 -12 -32 -19 -17 -6 -29 -14 -26 -17 3 -3 18
2 34 10 28 15 30 14 49 -11 11 -15 30 -39 43 -53 l24 -26 -6 30 c-3 17 -12 61
-21 100 -21 99 -19 107 15 46 17 -30 48 -79 71 -109 29 -38 41 -64 42 -90 2
-53 -12 -222 -18 -233 -14 -22 21 -6 56 26 22 19 47 35 57 35 14 0 15 2 2 10
-12 8 -12 11 3 28 9 10 17 24 17 31 0 7 -25 -18 -56 -54 -31 -36 -58 -64 -60
-62 -2 2 1 30 6 63 13 74 13 197 1 246 -5 20 -6 40 -2 45 3 4 -2 1 -12 -6 -11
-9 -15 -21 -11 -35 8 -29 -62 68 -93 129 -14 27 -31 65 -38 84 -6 19 -14 30
-17 25z m35 -236 c9 -31 2 -33 -17 -3 -13 20 -14 25 -2 25 7 0 16 -10 19 -22z"/>
<path d="M2087 5655 c-8 -8 -17 -11 -21 -8 -10 11 -7 -7 8 -35 19 -38 95 -267
108 -326 6 -30 13 -44 18 -36 6 9 10 6 15 -9 4 -13 9 -20 12 -18 2 3 -1 16 -8
29 -14 26 -99 267 -99 281 0 5 11 7 25 4 27 -5 45 15 45 50 0 20 -59 83 -77
83 -6 0 -18 -7 -26 -15z m75 -57 c-9 -9 -12 -7 -12 12 0 19 3 21 12 12 9 -9 9
-15 0 -24z"/>
<path d="M3481 5589 c-14 -42 -7 -49 9 -9 7 17 10 33 8 36 -3 3 -11 -9 -17
-27z"/>
<path d="M4555 5553 c25 -35 48 -63 51 -63 7 0 -28 47 -66 90 -17 19 -11 7 15
-27z"/>
<path d="M1914 5532 c40 -79 72 -175 81 -244 3 -27 10 -48 16 -48 13 0 11 14
-11 105 -19 74 -93 239 -113 252 -4 3 8 -26 27 -65z"/>
<path d="M1335 5560 c-27 -52 -45 -110 -35 -110 6 0 10 6 10 13 0 6 11 36 25
66 27 58 27 83 0 31z"/>
<path d="M1498 5567 c-5 -10 -8 -32 -8 -48 0 -31 -57 -142 -69 -135 -4 3 -13
1 -21 -5 -12 -7 -11 -9 6 -9 l21 0 -18 -57 c-11 -31 -20 -66 -20 -77 -1 -12
-5 -3 -9 19 -5 29 -8 33 -9 14 -1 -23 -7 -27 -41 -33 -46 -7 -51 -23 -20 -73
25 -42 32 -41 28 3 -4 47 18 56 27 12 9 -37 33 -78 46 -78 5 0 4 9 -3 20 -11
17 -10 22 2 30 8 5 19 6 24 2 6 -3 23 -5 39 -4 25 2 29 -1 24 -18 -3 -11 -1
-20 4 -20 5 0 12 14 16 30 3 18 12 30 22 30 27 1 -27 36 -86 56 -48 17 -52 20
-46 43 14 59 38 101 58 102 17 0 18 1 3 7 -16 6 -16 9 -1 40 18 37 20 37 33
-7 5 -20 5 -33 -2 -37 -6 -4 -6 -9 -1 -13 5 -3 19 -35 32 -71 26 -74 69 -154
103 -191 37 -41 111 -88 93 -59 -18 29 -32 115 -24 148 5 21 8 48 8 62 0 24 0
24 -13 -5 -12 -30 -13 -29 -19 34 -4 35 -7 81 -7 102 0 21 -5 41 -12 45 -16
10 -3 -152 22 -268 11 -51 20 -94 20 -95 0 -15 -56 39 -82 80 -75 117 -99 191
-107 327 -3 67 -9 107 -13 97z m-80 -389 c-7 -19 -38 -22 -38 -4 0 10 9 16 21
16 12 0 19 -5 17 -12z"/>
<path d="M4507 5553 c-4 -6 4 -53 17 -105 13 -51 27 -109 30 -130 4 -20 13
-39 21 -42 8 -3 15 -13 15 -21 0 -10 -5 -13 -11 -9 -9 5 -10 -2 -6 -22 4 -16
11 -57 18 -91 6 -35 15 -60 20 -57 5 3 9 0 9 -7 0 -7 2 -10 4 -8 3 2 -4 36
-14 74 -20 73 -25 116 -10 80 5 -11 23 -56 40 -100 18 -44 40 -98 50 -120 54
-121 73 -162 81 -184 5 -13 12 -22 14 -19 5 4 -49 141 -94 243 -36 80 -91 223
-91 237 0 7 -7 23 -15 34 -8 12 -12 24 -9 27 3 3 0 16 -7 29 -7 12 -22 63 -34
112 -12 49 -25 84 -28 79z"/>
<path d="M4050 5541 c0 -6 4 -13 10 -16 6 -3 7 1 4 9 -7 18 -14 21 -14 7z"/>
<path d="M1074 5441 c-121 -127 -178 -192 -162 -185 7 3 56 53 108 111 52 57
96 101 97 96 2 -5 -5 -37 -16 -71 -10 -34 -16 -62 -12 -62 5 0 73 194 68 196
-1 0 -39 -38 -83 -85z"/>
<path d="M1396 5514 c-4 -9 -4 -19 -1 -22 2 -3 7 3 11 12 4 9 4 19 1 22 -2 3
-7 -3 -11 -12z"/>
<path d="M2195 5510 c10 -11 20 -20 23 -20 3 0 -3 9 -13 20 -10 11 -20 20 -23
20 -3 0 3 -9 13 -20z"/>
<path d="M3651 5499 c0 -20 -4 -52 -7 -70 -6 -32 -5 -33 8 -14 11 15 13 33 8
70 -6 44 -7 46 -9 14z"/>
<path d="M4640 5482 c17 -28 34 -52 36 -52 8 0 -39 80 -55 93 -7 6 1 -12 19
-41z"/>
<path d="M1720 5424 c-6 -53 -9 -98 -7 -101 3 -2 9 22 12 54 10 81 15 84 35
20 10 -31 32 -81 49 -112 31 -54 33 -75 8 -75 -7 0 -25 -11 -42 -25 -16 -14
-23 -22 -14 -19 12 4 19 -3 24 -23 8 -32 23 -53 38 -53 7 0 7 4 -1 12 -7 7
-12 17 -12 24 0 18 32 27 42 12 8 -10 11 -10 15 0 2 6 13 12 24 12 14 0 19 -7
20 -27 1 -27 2 -26 20 12 10 22 17 48 15 58 -3 11 0 16 7 14 7 -2 11 -20 10
-42 l-3 -38 25 23 25 23 0 -36 c0 -23 -17 -73 -45 -132 l-45 -95 -93 -45 c-51
-25 -99 -45 -107 -45 -8 0 -22 -5 -30 -11 -11 -8 -5 -9 23 -4 36 6 37 5 37
-24 0 -23 -9 -38 -40 -62 -22 -18 -38 -34 -36 -37 3 -2 25 13 50 34 37 30 44
42 40 61 -8 32 1 29 36 -10 16 -19 58 -49 92 -67 35 -18 65 -35 67 -36 6 -5
-62 -104 -71 -104 -5 0 -8 -17 -8 -37 0 -21 -9 -101 -21 -178 -11 -77 -24
-185 -29 -240 -20 -216 -22 -225 -42 -236 -10 -5 -23 -7 -28 -4 -5 3 -12 0
-16 -6 -4 -8 -9 -7 -15 2 -6 10 -9 11 -9 2 0 -20 -57 -16 -70 5 -9 14 -10 14
-5 -6 6 -22 4 -23 -27 -18 -18 3 -49 7 -68 8 -43 4 -61 19 -54 46 3 11 2 22
-3 25 -5 3 -8 -12 -7 -34 1 -21 -2 -39 -6 -39 -11 0 -21 76 -26 191 -2 53 -8
119 -14 145 -6 26 -10 120 -10 210 2 157 1 164 -23 206 -14 24 -31 56 -36 71
-10 26 -9 29 20 39 17 6 26 13 21 17 -8 5 12 117 24 139 1 2 25 -8 53 -23 29
-14 49 -30 46 -35 -3 -6 -1 -10 5 -10 6 0 8 -10 4 -24 -4 -19 3 -30 40 -61 26
-21 49 -36 52 -33 2 3 -6 12 -19 21 -43 28 -57 48 -57 82 0 33 1 33 30 25 19
-5 28 -5 25 1 -4 5 -14 9 -23 9 -29 0 -196 87 -223 117 -14 15 -40 64 -58 108
-42 108 -41 155 5 253 33 69 37 74 44 52 5 -20 9 -11 19 44 6 37 10 70 8 72
-2 2 -31 -55 -66 -127 -60 -125 -62 -132 -56 -187 9 -77 26 -163 38 -187 10
-18 9 -19 -9 -6 -68 52 -102 100 -118 165 -4 15 -10 26 -13 23 -3 -3 2 -27 11
-53 12 -35 15 -70 11 -128 -3 -54 -1 -71 4 -51 5 17 9 47 10 68 l1 38 36 -38
c33 -35 36 -41 30 -83 -9 -67 -67 -272 -83 -295 -15 -20 -15 -20 -9 1 5 15 1
24 -10 28 -13 5 -15 14 -10 41 13 66 -2 35 -19 -40 -10 -46 -23 -79 -33 -85
-14 -8 -14 -9 -2 -10 29 0 78 36 122 90 30 38 52 55 69 56 13 1 31 4 39 8 13
5 15 -15 16 -146 1 -154 16 -356 36 -503 11 -85 13 -163 4 -173 -6 -6 -76 29
-76 38 1 3 7 16 15 30 8 14 14 37 15 53 0 15 5 27 10 27 6 0 10 19 10 41 0 81
-32 364 -42 374 -7 7 -8 4 -4 -10 3 -11 7 -51 8 -90 2 -64 0 -75 -32 -125 -18
-30 -35 -57 -37 -59 -2 -3 -17 3 -32 12 -35 20 -41 21 -41 4 0 -7 -27 -39 -61
-72 -33 -33 -84 -96 -113 -140 -59 -90 -62 -101 -60 -290 1 -92 5 -118 24
-158 28 -59 45 -72 34 -26 -11 46 -7 215 5 237 8 13 10 9 11 -24 0 -50 26
-132 51 -159 18 -20 17 -22 -14 -66 -18 -25 -50 -73 -73 -105 -23 -32 -65
-104 -94 -159 -30 -55 -72 -122 -95 -150 -80 -95 -297 -421 -318 -477 -13 -35
223 -168 298 -168 l36 0 -7 -52 c-4 -29 -20 -77 -36 -105 -17 -29 -26 -53 -21
-53 4 1 19 23 32 50 l24 50 117 0 116 0 39 -41 c56 -57 155 -126 204 -141 29
-9 41 -18 42 -33 0 -13 4 -9 10 11 11 39 56 53 78 26 12 -15 12 -15 6 5 -9 31
5 29 62 -7 38 -24 58 -30 103 -30 77 0 195 32 282 76 77 38 154 71 202 85 l29
8 -6 -39 c-7 -54 1 -79 28 -86 23 -6 23 -7 9 -46 -19 -56 -11 -59 10 -4 14 38
23 46 64 61 35 13 71 43 147 120 99 102 100 103 158 110 38 4 57 3 57 -4 0 -6
5 -11 11 -11 5 0 7 5 4 10 -4 6 -2 17 5 25 6 7 9 28 6 47 -5 31 -1 37 64 91
39 32 74 56 79 53 10 -7 -3 65 -22 119 -27 76 -115 240 -182 340 -76 112 -86
149 -61 220 11 34 13 53 5 66 -5 10 -11 19 -12 19 -1 0 -3 -19 -3 -42 -1 -24
-5 -63 -9 -88 -7 -42 2 -75 32 -131 5 -9 -178 -99 -200 -99 -10 0 -19 11 -23
28 -14 56 -53 129 -94 175 -45 51 -49 65 -80 337 -5 47 -14 108 -19 135 -49
269 -74 396 -87 429 -4 10 -1 16 8 16 12 0 78 82 112 140 26 43 -26 -17 -61
-70 -40 -62 -52 -69 -77 -45 -13 13 -15 12 -20 -13 -4 -15 0 -63 9 -107 8 -44
15 -82 15 -85 0 -7 -55 -40 -65 -40 -15 0 8 252 41 452 19 114 34 229 34 256
0 58 4 63 38 52 15 -5 40 -11 55 -14 34 -8 76 -70 113 -170 18 -49 39 -83 66
-109 34 -32 39 -42 33 -65 -8 -34 -52 -91 -92 -117 -23 -16 -27 -23 -18 -32 7
-6 15 -39 19 -73 14 -119 66 -302 118 -413 28 -59 53 -105 55 -103 2 2 -10 32
-27 66 -29 58 -31 65 -20 109 6 26 11 84 12 129 1 45 3 81 5 79 2 -2 10 -28
17 -58 56 -217 77 -403 45 -383 -5 3 -2 -11 8 -30 l17 -36 18 28 c33 49 49
124 52 242 3 80 2 94 -3 45 l-6 -70 -23 107 c-25 117 -86 317 -132 430 -17 40
-30 82 -30 92 0 11 -8 29 -19 40 -10 12 -35 59 -56 106 -20 47 -40 87 -43 90
-4 3 -7 14 -7 25 0 11 -5 20 -11 20 -6 0 -23 14 -37 31 -19 22 -39 33 -67 38
-48 8 -54 19 -78 149 -9 48 -20 87 -24 87 -5 0 -8 -9 -8 -19 0 -23 26 -148 36
-175 6 -16 4 -17 -17 -11 -13 4 -25 8 -26 9 -2 2 -9 46 -16 99 -13 96 -13 97
9 118 12 12 28 34 34 50 7 16 17 29 22 29 5 0 4 -9 -2 -19 -5 -11 -10 -23 -10
-28 0 -16 47 -13 62 5 29 34 77 138 90 197 l13 60 2 -55 c4 -84 12 -120 28
-120 7 0 16 -10 18 -22 2 -13 4 -5 4 17 0 22 3 51 7 65 5 18 2 16 -13 -10
l-20 -35 -1 55 c-1 55 -23 176 -34 187 -3 4 -6 -14 -6 -40 0 -102 -48 -234
-104 -286 -30 -28 -31 -25 -11 49 8 30 15 87 15 127 0 71 0 72 -55 149 -31 43
-54 83 -51 91 3 7 1 13 -4 13 -5 0 -20 19 -32 43 -20 38 -23 40 -26 18 -2 -15
3 -30 12 -37 17 -12 23 -29 7 -19 -17 10 -20 -10 -5 -35 15 -25 15 -25 8 -1
-10 39 11 21 60 -51 l46 -68 -39 0 c-34 0 -39 3 -49 33 l-12 32 4 -35 c3 -19
8 -44 12 -55 13 -36 -37 18 -75 79 -27 46 -31 59 -21 71 10 12 10 15 -3 15
-10 0 -21 19 -31 54 -9 30 -16 59 -16 64 0 6 -4 13 -9 16 -5 3 -14 -37 -21
-90z m108 -256 c-6 -18 -28 -21 -28 -4 0 9 7 16 16 16 9 0 14 -5 12 -12z
m-462 -296 c-7 -20 -20 -64 -31 -98 -17 -55 -22 -62 -62 -81 -40 -18 -43 -18
-38 -2 19 59 44 161 50 200 6 39 10 46 26 42 11 -3 19 0 19 8 0 7 9 4 24 -10
22 -20 23 -25 12 -59z m35 -72 c-15 -62 -21 -76 -39 -78 -12 -2 -22 0 -22 3 0
4 12 44 27 91 22 67 30 81 40 71 10 -10 9 -27 -6 -87z m492 62 c-2 -10 0 -46
6 -82 6 -35 9 -66 6 -68 -7 -8 -70 36 -103 72 l-32 36 57 29 c69 36 73 36 66
13z m-28 -1037 c0 -11 -8 -21 -17 -23 -14 -3 -18 3 -18 23 0 20 4 26 18 23 9
-2 17 -12 17 -23z m-420 -16 c8 -23 -7 -45 -24 -35 -6 4 -11 18 -11 32 0 30
26 32 35 3z m1023 -824 c28 -25 64 -70 81 -100 17 -30 36 -55 41 -55 6 0 10
-7 10 -15 0 -8 -8 -15 -18 -15 -17 0 -144 61 -169 82 -17 14 -17 -1 2 -45 8
-20 15 -42 15 -48 0 -38 -105 111 -115 162 -6 33 -5 36 37 56 24 11 48 21 54
22 7 0 34 -19 62 -44z m-1104 -790 l49 -34 -28 -11 c-16 -6 -34 -9 -41 -6 -11
4 -44 67 -44 82 0 10 19 1 64 -31z"/>
<path d="M4460 5501 c0 -6 4 -13 10 -16 6 -3 7 1 4 9 -7 18 -14 21 -14 7z"/>
<path d="M2230 5486 c0 -10 50 -59 56 -54 2 3 -10 17 -26 33 -17 16 -30 25
-30 21z"/>
<path d="M971 5408 c-119 -146 -361 -511 -348 -525 3 -2 23 29 45 69 22 40 68
114 103 163 34 50 80 117 102 150 22 33 54 76 71 96 59 70 97 119 92 119 -3 0
-32 -33 -65 -72z"/>
<path d="M3425 5469 c-4 -6 -5 -12 -2 -15 2 -3 7 2 10 11 7 17 1 20 -8 4z"/>
<path d="M3607 5444 c-15 -88 -4 -302 19 -358 6 -16 5 -17 -15 -6 -26 14 -38
8 -17 -9 11 -9 11 -18 1 -49 -18 -52 -29 -142 -16 -122 6 8 11 24 11 34 0 25
32 126 39 126 17 0 40 -63 34 -92 -5 -24 -3 -29 7 -23 10 6 12 -13 10 -91 -2
-55 -2 -110 0 -124 5 -54 18 34 19 137 l1 103 45 -32 c33 -24 45 -39 45 -57 0
-20 3 -23 9 -11 6 8 7 18 4 24 -4 6 1 6 13 2 10 -4 32 -10 47 -13 43 -9 43
-28 -2 -71 l-41 -39 -6 34 c-10 54 -27 40 -20 -16 5 -41 4 -51 -11 -60 -10 -5
-14 -13 -10 -17 4 -4 31 17 60 48 28 30 60 58 70 61 10 4 17 17 17 31 0 20 -7
27 -27 32 -39 10 -120 51 -171 88 -45 32 -72 71 -72 104 0 10 -7 34 -17 52
-15 31 -15 36 0 63 21 36 22 58 2 31 -14 -18 -15 -17 -6 8 12 32 7 193 -6 227
-9 23 -10 22 -16 -15z"/>
<path d="M4630 5450 c12 -16 24 -30 26 -30 3 0 -4 14 -16 30 -12 17 -24 30
-26 30 -3 0 4 -13 16 -30z"/>
<path d="M3476 5428 c-3 -18 -7 -71 -10 -118 l-5 -85 14 50 c13 42 19 185 9
185 -2 0 -5 -15 -8 -32z"/>
<path d="M1287 5423 c-2 -4 -7 -26 -10 -48 l-6 -40 14 44 c13 40 14 65 2 44z"/>
<path d="M2311 5393 c14 -16 44 -54 67 -85 24 -32 45 -58 49 -58 3 0 -7 17
-23 38 -81 108 -100 131 -108 132 -6 0 1 -12 15 -27z"/>
<path d="M4410 5387 c0 -14 -7 -43 -15 -66 -8 -22 -11 -41 -6 -41 4 0 13 -17
19 -37 11 -37 11 -37 7 17 -2 30 0 74 4 98 5 23 5 45 0 48 -5 3 -9 -6 -9 -19z"/>
<path d="M4660 5403 c0 -5 10 -19 21 -33 l20 -25 -16 33 c-15 30 -25 41 -25
25z"/>
<path d="M3401 5384 c0 -11 3 -14 6 -6 3 7 2 16 -1 19 -3 4 -6 -2 -5 -13z"/>
<path d="M3670 5379 c0 -8 7 -24 15 -35 11 -15 14 -16 15 -3 0 8 -7 24 -15 35
-11 15 -14 16 -15 3z"/>
<path d="M4700 5381 c0 -6 4 -13 10 -16 6 -3 7 1 4 9 -7 18 -14 21 -14 7z"/>
<path d="M4482 5330 c-2 -36 -12 -63 -33 -95 -21 -31 -28 -51 -24 -66 10 -29
-90 -129 -130 -129 -15 0 -43 -13 -64 -29 -20 -15 -52 -37 -71 -47 -26 -13
-31 -19 -17 -22 13 -3 17 -13 17 -43 0 -21 -3 -39 -7 -39 -5 0 -19 -10 -33
-21 -22 -18 -20 -18 16 2 39 22 42 26 41 66 0 40 15 73 34 73 5 0 9 -17 9 -37
0 -28 3 -34 10 -23 5 8 10 31 10 50 0 28 3 32 11 20 9 -13 10 -13 6 2 -8 22
12 37 45 35 25 -2 28 -6 28 -37 0 -37 30 -153 49 -189 10 -19 18 -20 64 -16
29 3 57 2 63 -2 6 -4 26 -32 44 -61 18 -29 34 -51 37 -48 8 7 -28 69 -63 109
-19 20 -34 40 -35 45 0 4 -2 14 -4 22 -30 149 -43 290 -32 357 2 12 11 31 21
42 18 20 35 131 20 131 -5 0 -10 -23 -12 -50z m-41 -350 c6 -47 17 -99 24
-116 16 -38 8 -52 -31 -60 -35 -7 -43 7 -68 103 -27 108 -25 128 19 173 l40
41 2 -28 c2 -15 8 -66 14 -113z"/>
<path d="M4709 5323 c14 -28 17 -28 25 -6 4 10 4 14 0 10 -4 -4 -14 -1 -22 6
-13 10 -14 9 -3 -10z"/>
<path d="M4165 5318 c-22 -5 -64 -8 -92 -5 -58 4 -67 -3 -28 -21 57 -26 175
-7 175 29 0 10 -1 10 -55 -3z"/>
<path d="M1063 5251 c-9 -24 -8 -31 3 -35 10 -4 14 4 14 29 0 43 -2 43 -17 6z"/>
<path d="M4746 5269 c5 -8 9 -19 10 -24 1 -6 16 -38 33 -70 34 -66 33 -48 -4
42 -12 31 -28 59 -35 61 -9 3 -10 0 -4 -9z"/>
<path d="M3780 5254 c-14 -7 -40 -14 -59 -14 -29 0 -32 -2 -21 -15 19 -23 52
-18 90 15 37 31 32 37 -10 14z"/>
<path d="M1125 5234 c-15 -52 -15 -242 0 -254 10 -9 12 9 8 93 -3 58 -2 118 2
133 l8 29 7 -30 c7 -28 8 -29 9 -4 0 14 -5 33 -13 44 -12 17 -14 16 -21 -11z"/>
<path d="M2401 5216 c12 -20 23 -36 25 -36 7 0 -25 58 -36 65 -5 3 -1 -10 11
-29z"/>
<path d="M875 5226 c-6 -8 -20 -28 -33 -45 -34 -46 -22 -38 21 14 21 25 34 45
30 45 -4 0 -13 -6 -18 -14z"/>
<path d="M1500 5236 c0 -2 8 -10 18 -17 15 -13 16 -12 3 4 -13 16 -21 21 -21
13z"/>
<path d="M1778 5224 c-38 -20 -36 -28 2 -9 17 9 30 18 30 20 0 7 -1 6 -32 -11z"/>
<path d="M2487 5133 c32 -61 60 -110 61 -108 5 4 -84 175 -103 201 -8 10 11
-31 42 -93z"/>
<path d="M4480 5221 c0 -11 67 -219 79 -246 5 -11 17 -41 27 -68 9 -26 19 -46
21 -43 3 2 -21 79 -51 170 -31 91 -56 173 -56 181 0 8 -4 15 -10 15 -5 0 -10
-4 -10 -9z"/>
<path d="M3467 5206 c-11 -9 -16 -25 -16 -47 2 -34 2 -34 6 -4 2 17 12 36 20
42 22 17 13 25 -10 9z"/>
<path d="M2203 5165 c0 -27 2 -38 4 -22 2 15 2 37 0 50 -2 12 -4 0 -4 -28z"/>
<path d="M2230 5201 c0 -6 4 -13 10 -16 6 -3 7 1 4 9 -7 18 -14 21 -14 7z"/>
<path d="M1062 5120 c0 -49 3 -77 7 -66 7 18 9 16 19 -14 7 -18 15 -31 18 -27
3 3 0 15 -6 27 -6 12 -18 54 -25 93 l-13 72 0 -85z"/>
<path d="M3401 5184 c0 -11 3 -14 6 -6 3 7 2 16 -1 19 -3 4 -6 -2 -5 -13z"/>
<path d="M972 5097 c-34 -50 -101 -141 -148 -202 -118 -154 -250 -352 -240
-362 2 -2 17 20 34 49 41 73 169 254 256 362 66 83 124 167 155 224 23 43 5
21 -57 -71z"/>
<path d="M3491 5174 c0 -11 3 -14 6 -6 3 7 2 16 -1 19 -3 4 -6 -2 -5 -13z"/>
<path d="M4389 5177 c12 -15 11 -21 -5 -40 l-18 -22 24 22 c24 23 24 23 5 40
-18 17 -18 17 -6 0z"/>
<path d="M3645 5169 c-4 -6 -5 -12 -2 -15 2 -3 7 2 10 11 7 17 1 20 -8 4z"/>
<path d="M2250 5165 c0 -5 5 -17 10 -25 5 -8 10 -10 10 -5 0 6 -5 17 -10 25
-5 8 -10 11 -10 5z"/>
<path d="M3533 5112 c2 -57 8 -64 24 -29 8 17 6 29 -8 52 l-18 29 2 -52z"/>
<path d="M797 5133 c-4 -3 -7 -11 -7 -17 0 -6 5 -5 12 2 6 6 9 14 7 17 -3 3
-9 2 -12 -2z"/>
<path d="M2450 5140 c1 -15 119 -232 120 -220 0 13 1 13 10 0 12 -18 12 -2 0
25 l-9 20 -1 -20 c-1 -11 -23 24 -51 80 -44 87 -69 130 -69 115z"/>
<path d="M2270 5116 c0 -8 42 -76 46 -76 3 0 -5 18 -16 40 -18 35 -30 49 -30
36z"/>
<path d="M4335 5110 c-3 -6 1 -7 9 -4 18 7 21 14 7 14 -6 0 -13 -4 -16 -10z"/>
<path d="M4820 5101 c0 -6 4 -13 10 -16 6 -3 7 1 4 9 -7 18 -14 21 -14 7z"/>
<path d="M1448 5093 c6 -2 18 -2 25 0 6 3 1 5 -13 5 -14 0 -19 -2 -12 -5z"/>
<path d="M1870 5090 c-13 -8 -13 -10 2 -10 9 0 20 5 23 10 8 13 -5 13 -25 0z"/>
<path d="M3542 5015 c0 -16 2 -22 5 -12 2 9 2 23 0 30 -3 6 -5 -1 -5 -18z"/>
<path d="M1051 5014 c0 -11 3 -14 6 -6 3 7 2 16 -1 19 -3 4 -6 -2 -5 -13z"/>
<path d="M2359 4954 c23 -45 49 -90 57 -100 9 -11 -6 22 -32 71 -25 50 -51 95
-57 100 -5 6 9 -27 32 -71z"/>
<path d="M3511 5023 c0 -6 -4 -20 -7 -30 -5 -14 -4 -15 5 -7 7 7 11 20 8 30
-3 11 -5 14 -6 7z"/>
<path d="M2097 5000 c3 -11 7 -20 9 -20 2 0 4 9 4 20 0 11 -4 20 -9 20 -5 0
-7 -9 -4 -20z"/>
<path d="M2550 5005 c0 -5 5 -17 10 -25 5 -8 10 -10 10 -5 0 6 -5 17 -10 25
-5 8 -10 11 -10 5z"/>
<path d="M4641 5005 c1 -19 18 -51 18 -35 0 8 -4 22 -9 30 -5 8 -9 11 -9 5z"/>
<path d="M1041 4974 c0 -11 3 -14 6 -6 3 7 2 16 -1 19 -3 4 -6 -2 -5 -13z"/>
<path d="M4622 4970 c0 -14 2 -19 5 -12 2 6 2 18 0 25 -3 6 -5 1 -5 -13z"/>
<path d="M2191 4964 c0 -11 3 -14 6 -6 3 7 2 16 -1 19 -3 4 -6 -2 -5 -13z"/>
<path d="M2111 4961 c-3 -42 128 -419 136 -394 2 6 -8 41 -23 79 -15 38 -46
128 -70 199 -23 72 -43 124 -43 116z"/>
<path d="M3532 4950 c0 -14 2 -19 5 -12 2 6 2 18 0 25 -3 6 -5 1 -5 -13z"/>
<path d="M3475 4905 c-9 -31 -14 -62 -13 -67 2 -6 12 17 21 52 10 34 16 65 13
67 -2 2 -12 -21 -21 -52z"/>
<path d="M4250 4928 c0 -20 7 -54 15 -78 11 -31 12 -41 2 -38 -6 3 -17 20 -24
39 -7 19 -12 30 -12 25 -1 -6 -6 -5 -13 2 -26 26 -27 10 -1 -29 28 -42 77 -70
122 -68 24 2 24 2 3 6 -30 6 -48 35 -66 107 -19 72 -26 81 -26 34z"/>
<path d="M1031 4924 c0 -11 3 -14 6 -6 3 7 2 16 -1 19 -3 4 -6 -2 -5 -13z"/>
<path d="M4094 4924 c-18 -14 -18 -15 4 -4 12 6 22 13 22 15 0 8 -5 6 -26 -11z"/>
<path d="M4631 4924 c0 -11 3 -14 6 -6 3 7 2 16 -1 19 -3 4 -6 -2 -5 -13z"/>
<path d="M3655 4920 c-4 -7 -10 -41 -13 -76 -7 -89 14 -83 22 7 7 71 5 91 -9
69z"/>
<path d="M2202 4910 c0 -8 4 -26 8 -40 6 -20 8 -21 8 -5 0 11 -3 29 -8 40 -5
12 -8 14 -8 5z"/>
<path d="M4040 4900 c-8 -5 -10 -10 -5 -10 6 0 17 5 25 10 8 5 11 10 5 10 -5
0 -17 -5 -25 -10z"/>
<path d="M3522 4870 c0 -19 2 -27 5 -17 2 9 2 25 0 35 -3 9 -5 1 -5 -18z"/>
<path d="M3965 4880 l-30 -8 30 -1 c17 0 37 4 45 9 13 9 13 10 0 9 -8 -1 -28
-5 -45 -9z"/>
<path d="M1181 4864 c0 -11 3 -14 6 -6 3 7 2 16 -1 19 -3 4 -6 -2 -5 -13z"/>
<path d="M4641 4870 c0 -8 4 -24 9 -35 5 -13 9 -14 9 -5 0 8 -4 24 -9 35 -5
13 -9 14 -9 5z"/>
<path d="M595 4839 c-9 -17 -15 -33 -13 -35 3 -2 12 12 21 31 21 43 13 47 -8
4z"/>
<path d="M1051 4863 c-1 -6 -4 -20 -7 -30 -5 -17 -5 -17 6 0 6 10 9 23 6 30
-3 9 -5 9 -5 0z"/>
<path d="M2600 4865 c0 -5 5 -17 10 -25 5 -8 10 -10 10 -5 0 6 -5 17 -10 25
-5 8 -10 11 -10 5z"/>
<path d="M2221 4824 c0 -11 3 -14 6 -6 3 7 2 16 -1 19 -3 4 -6 -2 -5 -13z"/>
<path d="M3265 4829 c-4 -6 -5 -12 -2 -15 2 -3 7 2 10 11 7 17 1 20 -8 4z"/>
<path d="M4617 4822 c3 -12 9 -25 14 -28 14 -8 11 10 -6 32 -13 18 -14 18 -8
-4z"/>
<path d="M2440 4810 c6 -11 13 -20 16 -20 2 0 0 9 -6 20 -6 11 -13 20 -16 20
-2 0 0 -9 6 -20z"/>
<path d="M3513 4780 c0 -30 2 -43 4 -27 2 15 2 39 0 55 -2 15 -4 2 -4 -28z"/>
<path d="M3442 4783 c-5 -21 -13 -53 -17 -71 -4 -18 -11 -29 -16 -26 -6 3 -7
20 -4 37 16 84 -44 -73 -64 -168 -18 -86 -29 -208 -22 -260 l6 -50 52 -5 51
-5 -19 26 c-21 30 -24 60 -9 75 5 5 11 70 14 144 2 90 11 168 25 233 22 98 24
142 3 70z"/>
<path d="M4065 4810 c-3 -5 -2 -10 4 -10 5 0 13 5 16 10 3 6 2 10 -4 10 -5 0
-13 -4 -16 -10z"/>
<path d="M4911 4804 c0 -11 3 -14 6 -6 3 7 2 16 -1 19 -3 4 -6 -2 -5 -13z"/>
<path d="M3315 4799 c-4 -6 -5 -12 -2 -15 2 -3 7 2 10 11 7 17 1 20 -8 4z"/>
<path d="M1026 4785 c-9 -26 -7 -32 5 -12 6 10 9 21 6 23 -2 3 -7 -2 -11 -11z"/>
<path d="M1473 4767 c-24 -17 -41 -32 -39 -35 6 -6 61 25 76 43 22 27 7 23
-37 -8z"/>
<path d="M2232 4780 c0 -14 2 -19 5 -12 2 6 2 18 0 25 -3 6 -5 1 -5 -13z"/>
<path d="M4025 4790 c-3 -5 -2 -10 4 -10 5 0 13 5 16 10 3 6 2 10 -4 10 -5 0
-13 -4 -16 -10z"/>
<path d="M567 4783 c-4 -3 -7 -11 -7 -17 0 -6 5 -5 12 2 6 6 9 14 7 17 -3 3
-9 2 -12 -2z"/>
<path d="M991 4774 c0 -11 3 -14 6 -6 3 7 2 16 -1 19 -3 4 -6 -2 -5 -13z"/>
<path d="M3893 4774 c-20 -21 -16 -42 3 -22 9 9 15 21 13 26 -2 6 -9 4 -16 -4z"/>
<path d="M2476 4755 c42 -72 67 -104 77 -98 8 5 7 8 -1 11 -7 2 -12 8 -12 12
0 5 -10 19 -22 32 -13 13 -31 34 -41 48 -18 25 -18 25 -1 -5z"/>
<path d="M3965 4755 l-30 -25 38 21 c20 11 37 23 37 25 0 10 -17 2 -45 -21z"/>
<path d="M4344 4747 c-42 -44 -125 -154 -122 -164 1 -4 -4 -26 -11 -48 -21
-70 -41 -198 -40 -260 0 -33 3 -54 6 -47 3 7 25 12 59 12 l54 0 0 50 c0 28 4
50 10 50 5 0 7 21 3 49 -6 52 17 160 63 297 36 105 32 116 -22 61z"/>
<path d="M4922 4760 c0 -14 2 -19 5 -12 2 6 2 18 0 25 -3 6 -5 1 -5 -13z"/>
<path d="M3536 4744 c-4 -14 -5 -28 -3 -31 3 -2 8 8 11 23 4 14 5 28 3 31 -3
2 -8 -8 -11 -23z"/>
<path d="M4800 4752 c6 -13 14 -21 18 -18 3 4 -2 14 -12 24 -18 16 -18 16 -6
-6z"/>
<path d="M3638 4754 c-5 -4 -8 -24 -8 -45 0 -29 -5 -39 -21 -44 -11 -4 -24
-18 -30 -32 -14 -38 -11 -40 14 -11 12 15 39 31 60 37 20 5 37 8 37 7 0 -1
-16 -41 -35 -89 -19 -48 -35 -96 -35 -107 0 -11 -4 -20 -10 -20 -6 0 -10 -43
-10 -108 l0 -109 28 4 c20 3 29 -1 37 -18 6 -12 20 -29 32 -36 21 -14 23 -11
84 116 34 72 66 131 71 131 5 0 13 11 18 25 12 33 34 33 26 1 -3 -13 -1 -26 4
-28 6 -2 14 -26 19 -53 16 -87 33 -170 37 -177 5 -8 49 10 82 33 20 14 21 19
11 48 -6 17 -8 38 -5 46 3 8 2 15 -3 15 -14 0 -31 51 -26 78 4 21 3 23 -3 7
-8 -17 -11 -15 -22 20 -7 22 -20 54 -30 71 l-16 32 -25 -19 c-27 -21 -60 -24
-75 -9 -14 14 -70 -53 -119 -144 -21 -37 -39 -65 -42 -63 -4 4 8 81 26 175 5
23 5 42 0 42 -4 0 -9 33 -11 73 -3 64 -5 72 -23 72 -16 0 -21 8 -25 43 -3 24
-8 40 -12 36z"/>
<path d="M4640 4751 c0 -5 5 -13 10 -16 6 -3 10 -2 10 4 0 5 -4 13 -10 16 -5
3 -10 2 -10 -4z"/>
<path d="M4730 4746 c0 -8 4 -17 9 -20 5 -4 7 3 4 14 -6 23 -13 26 -13 6z"/>
<path d="M537 4718 c-8 -18 -18 -44 -21 -58 -3 -14 5 -1 19 29 14 30 24 56 21
58 -2 2 -10 -11 -19 -29z"/>
<path d="M976 4724 c-4 -14 -5 -28 -3 -31 3 -2 8 8 11 23 4 14 5 28 3 31 -3 2
-8 -8 -11 -23z"/>
<path d="M1005 4720 c-4 -12 -5 -24 -2 -27 3 -2 8 5 12 17 4 12 5 24 2 27 -3
2 -8 -5 -12 -17z"/>
<path d="M2641 4730 c0 -8 4 -22 9 -30 12 -18 12 -2 0 25 -6 13 -9 15 -9 5z"/>
<path d="M3277 4662 c-27 -95 -37 -136 -36 -152 0 -10 3 -8 9 5 6 14 9 -5 10
-60 1 -44 5 -91 9 -105 4 -14 5 25 3 85 -3 75 1 137 12 194 8 47 14 86 13 88
-2 1 -11 -23 -20 -55z"/>
<path d="M4445 4709 c-4 -6 -5 -12 -2 -15 2 -3 7 2 10 11 7 17 1 20 -8 4z"/>
<path d="M3511 4684 c-1 -17 -4 -46 -8 -64 -4 -22 -3 -31 4 -27 15 10 21 53
13 90 l-8 32 -1 -31z"/>
<path d="M3720 4695 c-16 -9 -19 -14 -9 -15 8 0 24 7 35 15 24 18 7 19 -26 0z"/>
<path d="M4820 4701 c0 -5 5 -13 10 -16 6 -3 10 -2 10 4 0 5 -4 13 -10 16 -5
3 -10 2 -10 -4z"/>
<path d="M4932 4695 c-1 -11 3 -38 7 -60 7 -34 9 -35 9 -10 0 35 -15 101 -16
70z"/>
<path d="M2251 4690 c0 -8 4 -24 9 -35 5 -13 9 -14 9 -5 0 8 -4 24 -9 35 -5
13 -9 14 -9 5z"/>
<path d="M4665 4683 c4 -10 16 -46 27 -81 11 -35 22 -61 24 -59 10 10 -29 146
-43 151 -11 5 -13 2 -8 -11z"/>
<path d="M4750 4691 c0 -5 5 -13 10 -16 6 -3 10 -2 10 4 0 5 -4 13 -10 16 -5
3 -10 2 -10 -4z"/>
<path d="M1037 4618 c-14 -40 -52 -149 -85 -243 -32 -93 -66 -187 -75 -207 -9
-21 -13 -38 -9 -38 18 0 159 166 149 176 -3 3 -19 -15 -36 -40 -40 -58 -58
-69 -33 -20 11 22 27 64 36 94 28 88 28 88 38 51 15 -54 18 -31 6 43 -11 66
-10 70 10 87 12 9 18 19 12 21 -6 2 -5 28 5 73 8 38 13 71 11 72 -2 2 -14 -29
-29 -69z"/>
<path d="M3222 4670 c0 -14 2 -19 5 -12 2 6 2 18 0 25 -3 6 -5 1 -5 -13z"/>
<path d="M961 4673 c-1 -6 -4 -20 -7 -30 -5 -17 -5 -17 6 0 6 10 9 23 6 30 -3
9 -5 9 -5 0z"/>
<path d="M3910 4666 c0 -8 7 -16 15 -20 13 -4 14 -2 5 14 -13 23 -20 26 -20 6z"/>
<path d="M4840 4663 c0 -4 5 -15 10 -23 8 -13 10 -13 10 2 0 9 -4 20 -10 23
-5 3 -10 3 -10 -2z"/>
<path d="M1648 4654 c-3 -5 10 -23 28 -41 19 -18 34 -28 34 -23 0 5 -8 15 -18
22 -10 7 -23 21 -29 32 -6 10 -13 15 -15 10z"/>
<path d="M2666 4630 c4 -19 10 -42 15 -50 11 -18 1 34 -13 65 -5 13 -6 9 -2
-15z"/>
<path d="M4416 4645 c-9 -26 -7 -32 5 -12 6 10 9 21 6 23 -2 3 -7 -2 -11 -11z"/>
<path d="M976 4635 c-9 -26 -7 -32 5 -12 6 10 9 21 6 23 -2 3 -7 -2 -11 -11z"/>
<path d="M2557 4643 c-3 -5 13 -39 35 -76 25 -41 44 -64 48 -57 5 8 9 6 14 -5
9 -23 8 -27 -5 -20 -6 4 1 -15 14 -41 13 -27 32 -70 42 -97 10 -26 20 -45 23
-43 5 6 -45 135 -60 154 -6 7 -9 15 -6 17 8 8 22 -12 72 -100 48 -85 62 -95
22 -16 -37 73 -50 105 -47 122 1 8 -3 26 -9 40 -8 20 -9 17 -4 -16 l5 -40 -27
30 c-15 17 -32 30 -37 30 -6 0 -12 6 -15 14 -3 9 0 11 8 6 9 -5 11 -4 6 4 -4
6 -12 8 -18 5 -7 -5 -9 -2 -6 8 4 8 -2 28 -13 44 -11 17 -19 23 -19 14 0 -13
-2 -13 -9 0 -6 8 -7 18 -5 22 3 4 3 8 0 8 -3 0 -7 -3 -9 -7z"/>
<path d="M4776 4637 c3 -10 9 -15 12 -12 3 3 0 11 -7 18 -10 9 -11 8 -5 -6z"/>
<path d="M3846 4624 c-8 -21 -8 -21 7 -27 7 -3 12 4 12 19 0 27 -10 32 -19 8z"/>
<path d="M496 4604 c-4 -14 -5 -28 -3 -31 3 -2 8 8 11 23 4 14 5 28 3 31 -3 2
-8 -8 -11 -23z"/>
<path d="M4620 4610 c6 -11 13 -20 16 -20 2 0 0 9 -6 20 -6 11 -13 20 -16 20
-2 0 0 -9 6 -20z"/>
<path d="M4861 4615 c38 -105 63 -165 66 -162 5 6 -48 150 -60 162 -6 7 -8 7
-6 0z"/>
<path d="M941 4603 c-1 -6 -4 -20 -7 -30 -5 -17 -5 -17 6 0 6 10 9 23 6 30 -3
9 -5 9 -5 0z"/>
<path d="M2046 4595 c-3 -9 -6 -22 -5 -28 0 -7 5 -1 10 12 5 13 8 26 5 28 -2
2 -6 -3 -10 -12z"/>
<path d="M4791 4605 c0 -5 6 -21 14 -35 8 -14 14 -20 14 -15 0 6 -6 21 -14 35
-8 14 -14 21 -14 15z"/>
<path d="M3917 4580 c-17 -13 -27 -16 -34 -9 -17 17 -23 -4 -7 -25 13 -19 14
-19 38 7 13 14 27 22 32 17 5 -5 15 -2 22 6 7 8 11 14 10 15 -27 7 -42 4 -61
-11z"/>
<path d="M4395 4589 c-4 -6 -5 -12 -2 -15 2 -3 7 2 10 11 7 17 1 20 -8 4z"/>
<path d="M956 4575 c-9 -26 -7 -32 5 -12 6 10 9 21 6 23 -2 3 -7 -2 -11 -11z"/>
<path d="M1592 4578 c2 -6 10 -14 16 -16 7 -2 10 2 6 12 -7 18 -28 22 -22 4z"/>
<path d="M3556 4574 c-4 -9 -4 -19 -1 -22 2 -3 7 3 11 12 4 9 4 19 1 22 -2 3
-7 -3 -11 -12z"/>
<path d="M3825 4571 c-3 -5 -1 -12 5 -16 5 -3 10 1 10 9 0 18 -6 21 -15 7z"/>
<path d="M4957 4480 c3 -58 7 -107 9 -109 7 -8 2 124 -6 169 -5 30 -6 10 -3
-60z"/>
<path d="M476 4534 c-4 -14 -5 -28 -3 -31 3 -2 8 8 11 23 4 14 5 28 3 31 -3 2
-8 -8 -11 -23z"/>
<path d="M3502 4540 c0 -14 2 -19 5 -12 2 6 2 18 0 25 -3 6 -5 1 -5 -13z"/>
<path d="M4169 4533 l-24 -28 28 24 c25 23 32 31 24 31 -2 0 -14 -12 -28 -27z"/>
<path d="M1650 4530 c-6 -9 -10 -11 -10 -2 0 7 -13 12 -31 12 -20 0 -29 -4
-26 -12 2 -7 -10 -31 -28 -53 -17 -22 -34 -48 -38 -58 -4 -11 -12 -15 -18 -11
-8 4 -9 3 -5 -4 4 -6 1 -22 -6 -34 -12 -23 -13 -22 -19 12 -4 25 -6 16 -7 -36
0 -38 2 -75 6 -81 7 -9 45 -33 55 -33 2 0 17 28 32 63 65 146 76 167 85 167 6
0 10 -9 10 -20 0 -11 3 -20 8 -20 4 0 18 -37 30 -83 31 -113 32 -114 73 -91
19 11 36 20 37 21 2 1 7 17 12 36 5 26 4 34 -4 31 -11 -4 -46 60 -46 84 0 7
-4 12 -8 12 -9 0 -42 64 -42 82 0 6 10 2 23 -9 24 -22 67 -36 67 -22 0 5 -11
9 -23 9 -13 0 -32 9 -42 20 -10 12 -25 18 -33 15 -9 -3 -12 0 -9 8 7 18 -32
16 -43 -3z m-20 -14 c0 -8 -4 -18 -10 -21 -5 -3 -10 -4 -10 -1 0 2 -3 11 -6
20 -4 11 -1 16 10 16 9 0 16 -6 16 -14z m50 6 c0 -10 -22 -32 -32 -32 -5 0 -3
9 4 20 13 20 28 27 28 12z"/>
<path d="M3203 4485 c0 -38 2 -53 4 -32 2 20 2 52 0 70 -2 17 -4 1 -4 -38z"/>
<path d="M916 4516 c-8 -33 -5 -39 10 -22 6 6 8 20 4 31 -6 17 -8 16 -14 -9z"/>
<path d="M2026 4525 c-9 -26 -7 -32 5 -12 6 10 9 21 6 23 -2 3 -7 -2 -11 -11z"/>
<path d="M4016 4525 c4 -8 11 -15 16 -15 6 0 5 6 -2 15 -7 8 -14 15 -16 15 -2
0 -1 -7 2 -15z"/>
<path d="M4820 4535 c0 -5 5 -17 10 -25 5 -8 10 -10 10 -5 0 6 -5 17 -10 25
-5 8 -10 11 -10 5z"/>
<path d="M2294 4508 c3 -14 9 -34 13 -44 4 -12 3 -15 -5 -10 -7 4 -12 5 -12 1
0 -10 110 -225 115 -225 3 0 -6 22 -19 48 -13 26 -32 71 -41 100 -10 29 -20
52 -24 52 -4 0 -7 15 -8 34 -1 19 -6 42 -13 53 -10 16 -11 15 -6 -9z"/>
<path d="M3536 4513 c-6 -14 -5 -15 5 -6 7 7 10 15 7 18 -3 3 -9 -2 -12 -12z"/>
<path d="M1540 4505 c-14 -8 -20 -14 -14 -15 5 0 19 7 30 15 24 18 16 19 -16
0z"/>
<path d="M1826 4504 c-11 -8 -16 -14 -10 -14 13 0 39 18 34 24 -3 2 -14 -2
-24 -10z"/>
<path d="M2270 4505 c0 -5 5 -17 10 -25 5 -8 10 -10 10 -5 0 6 -5 17 -10 25
-5 8 -10 11 -10 5z"/>
<path d="M4050 4501 c0 -5 7 -14 15 -21 12 -10 15 -10 15 3 0 8 -7 17 -15 21
-8 3 -15 2 -15 -3z"/>
<path d="M451 4439 c-7 -27 -11 -52 -9 -54 2 -3 10 18 17 46 7 27 11 52 9 54
-2 3 -10 -18 -17 -46z"/>
<path d="M2011 4475 c-1 -17 -3 -18 -11 -5 -8 12 -10 9 -10 -13 0 -26 1 -27
16 -13 8 9 13 24 11 34 -4 14 -5 14 -6 -3z"/>
<path d="M3489 4458 c-3 -22 -1 -34 4 -29 5 5 7 21 5 37 -3 27 -4 26 -9 -8z"/>
<path d="M4840 4481 c0 -6 4 -13 10 -16 6 -3 7 1 4 9 -7 18 -14 21 -14 7z"/>
<path d="M535 4438 c-59 -146 -91 -283 -100 -423 -3 -55 -8 -117 -11 -138 -3
-25 -1 -36 6 -32 12 8 13 3 0 -29 -8 -21 -7 -24 8 -19 43 16 252 165 252 180
0 6 -22 -10 -56 -40 -12 -10 -24 -15 -27 -10 -3 4 -15 53 -27 108 -19 82 -23
131 -24 273 0 94 -1 172 -2 172 -1 0 -10 -19 -19 -42z"/>
<path d="M882 4387 c-13 -44 -21 -82 -18 -84 2 -2 12 22 21 54 9 32 23 69 30
84 11 20 11 26 1 26 -7 0 -22 -35 -34 -80z"/>
<path d="M3231 4454 c0 -11 3 -14 6 -6 3 7 2 16 -1 19 -3 4 -6 -2 -5 -13z"/>
<path d="M4819 4437 c9 -11 11 -29 7 -50 -4 -23 -3 -28 4 -17 15 23 12 56 -7
71 -16 13 -17 12 -4 -4z"/>
<path d="M4347 4421 c-4 -17 -3 -21 5 -13 5 5 8 16 6 23 -3 8 -7 3 -11 -10z"/>
<path d="M4866 4427 c3 -10 9 -15 12 -12 3 3 0 11 -7 18 -10 9 -11 8 -5 -6z"/>
<path d="M4930 4416 c0 -8 4 -17 9 -20 5 -4 7 3 4 14 -6 23 -13 26 -13 6z"/>
<path d="M1070 4411 c0 -5 5 -13 10 -16 6 -3 10 -2 10 4 0 5 -4 13 -10 16 -5
3 -10 2 -10 -4z"/>
<path d="M1786 4403 c-6 -14 -5 -15 5 -6 7 7 10 15 7 18 -3 3 -9 -2 -12 -12z"/>
<path d="M1992 4398 c-9 -12 -24 -86 -36 -183 -5 -36 -4 -36 8 10 8 28 15 62
15 76 1 15 8 45 16 68 15 43 14 49 -3 29z"/>
<path d="M4880 4395 c0 -5 5 -17 10 -25 5 -8 10 -10 10 -5 0 6 -5 17 -10 25
-5 8 -10 11 -10 5z"/>
<path d="M1095 4360 c3 -14 8 -36 12 -49 4 -18 3 -22 -8 -16 -7 5 -3 -6 9 -23
38 -52 43 -46 18 20 -32 85 -37 97 -31 68z"/>
<path d="M2026 4363 c-6 -14 -5 -15 5 -6 7 7 10 15 7 18 -3 3 -9 -2 -12 -12z"/>
<path d="M3211 4364 c0 -11 3 -14 6 -6 3 7 2 16 -1 19 -3 4 -6 -2 -5 -13z"/>
<path d="M1790 4366 c0 -2 9 -6 20 -9 11 -3 18 -1 14 4 -5 9 -34 13 -34 5z"/>
<path d="M425 4305 c-4 -25 -5 -48 -2 -51 2 -3 8 16 12 41 3 26 4 49 2 52 -3
3 -9 -16 -12 -42z"/>
<path d="M1031 4336 c-10 -12 -8 -13 8 -9 12 3 18 9 15 14 -7 12 -10 11 -23
-5z"/>
<path d="M2000 4320 c-6 -11 -8 -20 -6 -20 3 0 10 9 16 20 6 11 8 20 6 20 -3
0 -10 -9 -16 -20z"/>
<path d="M3220 4328 c0 -7 9 -31 20 -53 11 -22 18 -31 14 -20 -3 11 -10 35
-16 53 -9 32 -18 42 -18 20z"/>
<path d="M4321 4304 c0 -11 3 -14 6 -6 3 7 2 16 -1 19 -3 4 -6 -2 -5 -13z"/>
<path d="M3281 4300 c0 -8 4 -22 9 -30 12 -18 12 -2 0 25 -6 13 -9 15 -9 5z"/>
<path d="M4780 4280 c-6 -11 -8 -20 -6 -20 3 0 10 9 16 20 6 11 8 20 6 20 -3
0 -10 -9 -16 -20z"/>
<path d="M846 4275 c-9 -26 -7 -32 5 -12 6 10 9 21 6 23 -2 3 -7 -2 -11 -11z"/>
<path d="M2730 4164 c0 -140 -7 -176 -55 -280 -19 -40 -44 -102 -56 -139 -23
-66 -36 -68 -38 -6 -2 54 -16 4 -22 -77 -4 -48 -13 -106 -22 -129 -8 -24 -13
-43 -10 -43 12 0 37 84 44 150 6 55 6 37 3 -63 -4 -128 -2 -141 19 -180 l22
-42 6 115 c3 63 10 126 16 139 9 23 10 22 22 -20 16 -56 72 -134 112 -154 17
-9 33 -14 35 -12 3 3 -2 32 -10 65 -18 68 -21 254 -6 317 6 22 12 121 14 220
2 99 1 149 -3 110 l-6 -70 -8 45 c-11 57 -46 180 -52 180 -3 0 -5 -57 -5 -126z"/>
<path d="M2782 4280 c0 -8 4 -26 8 -40 6 -20 8 -21 8 -5 0 11 -3 29 -8 40 -5
12 -8 14 -8 5z"/>
<path d="M2113 4273 c4 -3 -5 -26 -19 -50 -14 -25 -24 -46 -21 -49 4 -4 57 88
57 100 0 3 -5 6 -12 6 -6 0 -8 -3 -5 -7z"/>
<path d="M1654 4175 c0 -55 1 -76 3 -47 2 29 2 74 0 100 -2 26 -3 2 -3 -53z"/>
<path d="M411 4220 c-1 -14 -3 -63 -5 -110 -3 -79 -3 -81 6 -30 5 30 7 80 5
110 -2 30 -4 44 -6 30z"/>
<path d="M1466 4224 c-9 -23 -2 -28 13 -10 7 8 8 17 3 20 -6 3 -13 -1 -16 -10z"/>
<path d="M1602 4210 c0 -19 2 -27 5 -17 2 9 2 25 0 35 -3 9 -5 1 -5 -18z"/>
<path d="M1778 4233 c-20 -5 -24 -28 -6 -39 7 -5 8 -3 4 5 -5 7 0 18 10 26 20
15 20 15 -8 8z"/>
<path d="M826 4215 c-9 -26 -7 -32 5 -12 6 10 9 21 6 23 -2 3 -7 -2 -11 -11z"/>
<path d="M1085 4194 c-18 -16 -22 -22 -9 -15 18 9 53 42 43 41 -2 -1 -17 -12
-34 -26z"/>
<path d="M2410 4211 c0 -6 4 -13 10 -16 6 -3 7 1 4 9 -7 18 -14 21 -14 7z"/>
<path d="M1523 4155 c0 -27 2 -38 4 -22 2 15 2 37 0 50 -2 12 -4 0 -4 -28z"/>
<path d="M1460 4185 c0 -5 5 -17 10 -25 5 -8 10 -10 10 -5 0 6 -5 17 -10 25
-5 8 -10 11 -10 5z"/>
<path d="M2430 4180 c0 -3 12 -37 26 -75 14 -39 33 -89 41 -113 8 -24 17 -41
19 -39 5 5 -52 171 -70 205 -9 15 -15 25 -16 22z"/>
<path d="M2088 4154 c-38 -20 -36 -28 2 -9 17 9 30 18 30 20 0 7 -1 6 -32 -11z"/>
<path d="M1785 4120 c0 -15 3 -26 8 -23 4 2 7 13 7 23 0 10 -3 21 -7 23 -5 3
-8 -8 -8 -23z"/>
<path d="M1000 4120 c-9 -6 -10 -10 -3 -10 6 0 15 5 18 10 8 12 4 12 -15 0z"/>
<path d="M1480 4102 c0 -7 5 -12 12 -12 6 0 3 -9 -7 -20 -10 -11 -13 -20 -8
-20 6 0 16 7 23 16 11 12 10 18 -3 32 -11 10 -17 12 -17 4z"/>
<path d="M810 4085 c-7 -8 -16 -12 -21 -9 -5 3 -9 1 -9 -5 0 -5 -19 -29 -42
-52 -24 -23 -34 -36 -23 -28 11 7 27 20 36 29 8 8 30 28 48 43 19 15 31 30 29
33 -3 2 -11 -2 -18 -11z"/>
<path d="M920 4090 c-8 -5 -10 -10 -5 -10 6 0 17 5 25 10 8 5 11 10 5 10 -5 0
-17 -5 -25 -10z"/>
<path d="M1731 4014 c0 -11 3 -14 6 -6 3 7 2 16 -1 19 -3 4 -6 -2 -5 -13z"/>
<path d="M413 3970 c0 -30 2 -43 4 -27 2 15 2 39 0 55 -2 15 -4 2 -4 -28z"/>
<path d="M1491 3973 c7 -12 15 -20 18 -17 3 2 -3 12 -13 22 -17 16 -18 16 -5
-5z"/>
<path d="M1533 3950 c0 -25 2 -35 4 -22 2 12 2 32 0 45 -2 12 -4 2 -4 -23z"/>
<path d="M1786 3973 c-6 -14 -5 -15 5 -6 7 7 10 15 7 18 -3 3 -9 -2 -12 -12z"/>
<path d="M1749 3945 c-8 -15 17 -80 25 -66 4 7 3 17 -2 24 -5 7 -12 21 -14 32
-2 11 -6 16 -9 10z"/>
<path d="M2463 3915 c6 -19 14 -35 18 -35 9 0 -9 58 -21 65 -4 3 -3 -11 3 -30z"/>
<path d="M2520 3934 c0 -15 48 -160 49 -149 1 13 -37 146 -44 153 -3 3 -5 1
-5 -4z"/>
<path d="M2471 3854 c0 -11 3 -14 6 -6 3 7 2 16 -1 19 -3 4 -6 -2 -5 -13z"/>
<path d="M4008 3863 c17 -2 47 -2 65 0 17 2 3 4 -33 4 -36 0 -50 -2 -32 -4z"/>
<path d="M930 3845 c-7 -9 -11 -17 -9 -20 3 -2 10 5 17 15 14 24 10 26 -8 5z"/>
<path d="M4128 3853 c6 -2 18 -2 25 0 6 3 1 5 -13 5 -14 0 -19 -2 -12 -5z"/>
<path d="M3878 3843 c7 -3 16 -2 19 1 4 3 -2 6 -13 5 -11 0 -14 -3 -6 -6z"/>
<path d="M4178 3843 c7 -3 16 -2 19 1 4 3 -2 6 -13 5 -11 0 -14 -3 -6 -6z"/>
<path d="M3748 3833 c6 -2 18 -2 25 0 6 3 1 5 -13 5 -14 0 -19 -2 -12 -5z"/>
<path d="M2501 3820 c0 -8 4 -24 9 -35 5 -13 9 -14 9 -5 0 8 -4 24 -9 35 -5
13 -9 14 -9 5z"/>
<path d="M3616 3821 c-4 -5 3 -7 14 -4 23 6 26 13 6 13 -8 0 -17 -4 -20 -9z"/>
<path d="M3918 3813 c6 -2 18 -2 25 0 6 3 1 5 -13 5 -14 0 -19 -2 -12 -5z"/>
<path d="M883 3788 c-12 -13 -62 -85 -113 -161 -50 -76 -100 -141 -112 -146
-19 -7 -15 -11 35 -40 51 -29 91 -67 125 -117 12 -18 12 -18 8 1 -3 11 -8 45
-11 75 -4 30 -14 80 -22 110 -9 30 -16 66 -17 80 -2 44 18 33 29 -17 16 -69
48 -134 80 -163 l28 -25 -16 30 c-44 88 -49 311 -7 367 25 34 21 36 -7 6z"/>
<path d="M3985 3779 c17 -20 36 -44 43 -55 7 -11 6 -6 -2 11 -8 17 -27 41 -42
55 l-28 25 29 -36z"/>
<path d="M386 3755 c-9 -26 -7 -32 5 -12 6 10 9 21 6 23 -2 3 -7 -2 -11 -11z"/>
<path d="M2522 3750 c-1 -8 5 -42 12 -75 8 -33 14 -49 14 -35 0 28 -25 133
-26 110z"/>
<path d="M4390 3735 c13 -14 26 -25 28 -25 3 0 -5 11 -18 25 -13 14 -26 25
-28 25 -3 0 5 -11 18 -25z"/>
<path d="M3831 3710 c14 -31 19 -36 19 -24 0 6 -7 19 -16 30 -14 18 -14 18 -3
-6z"/>
<path d="M4050 3673 c0 -5 7 -18 15 -29 13 -18 14 -18 8 4 -5 22 -23 41 -23
25z"/>
<path d="M3850 3665 c0 -5 5 -17 10 -25 5 -8 10 -10 10 -5 0 6 -5 17 -10 25
-5 8 -10 11 -10 5z"/>
<path d="M313 3639 c-12 -12 -39 -25 -60 -29 l-38 -8 37 -1 c33 -1 40 -6 64
-46 14 -25 28 -45 30 -45 6 0 -20 50 -40 75 -13 18 -12 22 12 48 30 32 26 37
-5 6z"/>
<path d="M450 3570 c22 -33 43 -60 46 -60 2 0 -14 27 -36 60 -22 33 -43 60
-46 60 -2 0 14 -27 36 -60z"/>
<path d="M4248 3598 c19 -19 14 -38 -9 -38 -17 0 -20 4 -16 23 l6 22 -20 -24
c-35 -43 -16 -100 34 -101 27 0 19 -13 -27 -42 -56 -36 -63 -35 -76 5 l-10 32
5 -34 c3 -18 5 -40 5 -47 0 -14 54 11 95 44 11 9 2 -3 -20 -28 -39 -43 -26
-39 25 7 l26 23 -4 -130 c-6 -169 21 -410 64 -585 5 -20 5 -20 -8 0 -7 12 -21
19 -30 17 -12 -2 -19 5 -24 23 -3 14 -8 24 -10 22 -7 -6 26 -141 37 -152 5 -5
9 -15 9 -22 0 -14 55 -168 90 -253 10 -25 24 -83 31 -129 8 -51 18 -85 26 -88
8 -3 36 -1 63 4 33 7 52 7 60 -1 5 -5 10 -6 10 -2 0 16 -54 131 -70 151 -52
61 -167 415 -206 630 -26 149 -38 355 -25 455 7 52 16 99 21 104 12 12 73 -19
111 -56 15 -16 33 -28 41 -28 7 0 2 9 -12 20 -29 22 -25 24 18 9 22 -7 36 -7
49 0 15 9 11 10 -20 11 -41 0 -107 24 -107 38 0 5 7 15 15 22 12 10 19 10 27
2 14 -14 38 -16 38 -3 0 5 -9 11 -20 14 -13 3 -20 14 -20 29 0 33 -27 68 -53
68 -18 0 -19 -2 -7 -10 13 -8 13 -11 -2 -26 -19 -20 -40 -11 -31 14 6 15 5 15
-10 3 -15 -12 -20 -11 -35 3 -22 19 -53 23 -34 4z"/>
<path d="M3661 3558 c-1 -52 -6 -58 -28 -30 -12 15 -13 13 -8 -18 2 -19 9 -82
15 -140 6 -58 14 -129 19 -157 4 -29 7 -53 5 -53 -1 0 -18 21 -37 48 -45 62
-67 129 -74 232 -6 75 -8 81 -16 51 -11 -45 7 -148 41 -225 25 -56 25 -60 8
-70 -10 -6 -25 -17 -34 -24 -15 -11 -15 -11 3 -6 11 4 28 14 38 23 17 15 21
13 48 -19 15 -19 29 -38 29 -42 0 -5 4 -8 8 -8 5 0 5 21 1 48 -5 26 -11 86
-15 135 -5 73 -3 92 11 113 10 15 12 23 4 19 -9 -6 -11 5 -7 51 3 32 2 73 -2
89 -7 27 -8 25 -9 -17z"/>
<path d="M3736 3575 c18 -111 18 -114 -10 -121 -35 -8 -33 -26 2 -19 26 4 29
1 45 -51 10 -31 15 -59 12 -64 -3 -4 2 -13 10 -20 12 -10 15 -9 15 4 0 9 5 16
10 16 10 0 14 -20 12 -52 -3 -28 15 -21 29 11 10 23 16 27 26 19 10 -8 13 10
11 93 l-2 104 -6 -75 -5 -75 -21 45 c-12 25 -24 55 -28 68 -12 37 -18 18 -8
-22 6 -20 9 -36 6 -36 -4 0 -85 154 -96 185 -5 13 -6 10 -2 -10z m44 -106 c0
-6 -4 -7 -10 -4 -5 3 -10 11 -10 16 0 6 5 7 10 4 6 -3 10 -11 10 -16z m48 -86
c26 -40 24 -47 -11 -38 -27 7 -37 30 -36 80 0 27 1 28 12 11 7 -10 22 -34 35
-53z"/>
<path d="M3872 3569 c6 -16 12 -28 15 -26 7 7 -8 57 -18 57 -4 0 -3 -14 3 -31z"/>
<path d="M3622 3570 c0 -14 2 -19 5 -12 2 6 2 18 0 25 -3 6 -5 1 -5 -13z"/>
<path d="M3552 3550 c0 -14 2 -19 5 -12 2 6 2 18 0 25 -3 6 -5 1 -5 -13z"/>
<path d="M3800 3554 c0 -6 7 -19 16 -30 14 -18 14 -18 3 6 -14 31 -19 36 -19
24z"/>
<path d="M2360 3531 c0 -6 4 -13 10 -16 6 -3 7 1 4 9 -7 18 -14 21 -14 7z"/>
<path d="M4111 3530 c0 -8 3 -20 7 -26 11 -17 49 -26 57 -14 4 6 -4 10 -20 10
-17 0 -29 7 -35 23 -5 12 -9 15 -9 7z"/>
<path d="M4516 3505 c4 -8 8 -15 10 -15 2 0 4 7 4 15 0 8 -4 15 -10 15 -5 0
-7 -7 -4 -15z"/>
<path d="M139 3493 c-13 -16 -12 -17 4 -4 9 7 17 15 17 17 0 8 -8 3 -21 -13z"/>
<path d="M190 3506 c0 -2 8 -10 18 -17 15 -13 16 -12 3 4 -13 16 -21 21 -21
13z"/>
<path d="M4480 3500 c-9 -6 -10 -10 -3 -10 6 0 15 5 18 10 8 12 4 12 -15 0z"/>
<path d="M350 3495 c0 -3 8 -18 17 -32 l17 -26 -59 -55 c-34 -31 -43 -42 -20
-25 22 17 49 41 60 52 l19 22 16 -22 17 -21 41 27 c23 15 42 30 42 32 0 5 -15
-3 -53 -30 -16 -10 -29 -18 -31 -16 -2 2 -15 25 -30 52 -26 43 -36 55 -36 42z"/>
<path d="M545 3470 c-16 -4 -22 -8 -12 -9 10 0 40 -23 68 -51 61 -61 84 -66
34 -8 -22 26 -34 50 -31 60 5 20 -8 21 -59 8z"/>
<path d="M2495 3454 c-9 -15 -12 -23 -6 -20 11 7 35 46 28 46 -3 0 -12 -12
-22 -26z"/>
<path d="M4314 3440 c3 -25 10 -85 15 -135 23 -216 33 -291 42 -305 7 -11 9
-3 5 25 -3 22 -15 130 -27 240 -12 110 -26 205 -31 210 -7 7 -8 -5 -4 -35z"/>
<path d="M54 3408 l-19 -23 23 19 c21 18 27 26 19 26 -2 0 -12 -10 -23 -22z"/>
<path d="M94 3398 l-29 -33 33 29 c30 28 37 36 29 36 -2 0 -16 -15 -33 -32z"/>
<path d="M3401 3423 c-1 -6 -4 -20 -7 -30 -5 -17 -5 -17 6 0 6 10 9 23 6 30
-3 9 -5 9 -5 0z"/>
<path d="M2421 3415 c0 -5 6 -21 14 -35 8 -14 14 -20 14 -15 0 6 -6 21 -14 35
-8 14 -14 21 -14 15z"/>
<path d="M3732 3385 c11 -20 19 -37 17 -38 -2 -2 -16 -11 -31 -20 -16 -10 -28
-22 -28 -27 0 -6 9 -5 20 2 17 11 22 10 30 -2 14 -22 12 -33 -5 -26 -11 4 -15
-1 -15 -18 0 -17 5 -23 18 -22 29 2 43 23 40 63 -2 36 -45 123 -60 123 -4 0 2
-16 14 -35z"/>
<path d="M4541 3394 c0 -11 3 -14 6 -6 3 7 2 16 -1 19 -3 4 -6 -2 -5 -13z"/>
<path d="M4215 3360 c-15 -34 -17 -67 -16 -242 1 -112 5 -221 9 -243 5 -24 7
61 6 205 -1 135 0 227 2 205 19 -189 29 -195 29 -15 0 72 -3 130 -6 130 -3 0
-14 -18 -24 -40z"/>
<path d="M4475 3393 c15 -16 55 -26 55 -14 0 6 -6 11 -14 11 -8 0 -23 3 -33 6
-12 5 -15 4 -8 -3z"/>
<path d="M4441 3370 c14 -31 19 -36 19 -24 0 6 -7 19 -16 30 -14 18 -14 18 -3
-6z"/>
<path d="M4153 3325 c0 -27 2 -38 4 -22 2 15 2 37 0 50 -2 12 -4 0 -4 -28z"/>
<path d="M105 3339 c-4 -6 -5 -12 -2 -15 2 -3 7 2 10 11 7 17 1 20 -8 4z"/>
<path d="M3381 3334 c0 -11 3 -14 6 -6 3 7 2 16 -1 19 -3 4 -6 -2 -5 -13z"/>
<path d="M262 3295 c0 -16 2 -22 5 -12 2 9 2 23 0 30 -3 6 -5 -1 -5 -18z"/>
<path d="M4077 3310 c-3 -8 -10 -37 -17 -65 -6 -27 -22 -72 -34 -100 -25 -53
-89 -125 -112 -125 -8 0 -14 -4 -14 -10 0 -18 17 -10 62 30 45 39 108 145 108
180 0 10 4 21 9 24 4 3 6 -26 3 -64 -5 -75 4 -88 32 -48 20 28 20 50 1 24 -14
-18 -15 -15 -16 35 0 67 -14 140 -22 119z"/>
<path d="M4496 3307 c3 -10 9 -15 12 -12 3 3 0 11 -7 18 -10 9 -11 8 -5 -6z"/>
<path d="M4450 3306 c0 -10 60 -136 64 -136 3 0 -5 30 -19 66 -14 37 -25 68
-25 70 0 2 -4 4 -10 4 -5 0 -10 -2 -10 -4z"/>
<path d="M144 3278 l-19 -23 23 19 c21 18 27 26 19 26 -2 0 -12 -10 -23 -22z"/>
<path d="M223 3265 c0 -22 2 -30 4 -17 2 12 2 30 0 40 -3 9 -5 -1 -4 -23z"/>
<path d="M3437 3270 c-4 -14 -6 -43 -6 -65 1 -39 2 -39 9 -10 l8 30 2 -30 c1
-16 4 -25 6 -19 2 5 1 35 -4 65 -6 44 -9 50 -15 29z"/>
<path d="M90 3276 c0 -2 7 -6 15 -10 8 -3 15 -1 15 4 0 6 -7 10 -15 10 -8 0
-15 -2 -15 -4z"/>
<path d="M4566 3236 c8 -27 17 -52 21 -55 3 -3 3 2 0 12 -4 10 -7 26 -7 36 0
9 -7 26 -15 37 -12 17 -12 13 1 -30z"/>
<path d="M2273 3215 c0 -27 2 -38 4 -22 2 15 2 37 0 50 -2 12 -4 0 -4 -28z"/>
<path d="M4141 3238 c-1 -14 -4 -35 -7 -45 -5 -15 -4 -15 5 -3 20 28 12 -42
-8 -76 -23 -38 -81 -84 -105 -84 -14 0 -16 -5 -10 -22 4 -13 11 -39 15 -58 6
-30 7 -31 9 -10 2 14 2 35 1 48 -1 17 11 35 44 64 25 22 52 53 60 69 16 31 19
92 5 124 -8 18 -9 17 -9 -7z"/>
<path d="M3731 3193 c-1 -12 4 -25 9 -28 12 -7 12 2 0 30 -8 19 -9 19 -9 -2z"/>
<path d="M3890 3142 c-21 -60 -22 -69 -5 -39 9 15 20 25 25 22 6 -4 10 5 10
19 0 39 -15 38 -30 -2z"/>
<path d="M2340 3140 c-9 -6 -10 -10 -3 -10 6 0 15 5 18 10 8 12 4 12 -15 0z"/>
<path d="M3525 3125 c8 -26 14 -165 8 -165 -2 0 -11 17 -22 38 -11 20 -20 33
-21 29 0 -14 28 -63 46 -78 15 -13 16 -7 12 84 -2 63 -9 101 -17 109 -11 11
-12 8 -6 -17z"/>
<path d="M2243 3118 c-6 -11 29 -10 46 1 10 7 6 9 -13 8 -16 -1 -30 -5 -33 -9z"/>
<path d="M3429 3065 l-4 -40 -17 30 c-10 17 -17 25 -18 20 0 -13 50 -88 56
-82 2 2 0 28 -4 58 l-9 54 -4 -40z"/>
<path d="M3471 3084 c0 -11 3 -14 6 -6 3 7 2 16 -1 19 -3 4 -6 -2 -5 -13z"/>
<path d="M3901 3090 c-1 -8 -4 -26 -7 -40 -5 -19 -4 -22 5 -14 7 6 11 24 8 40
-2 16 -5 22 -6 14z"/>
<path d="M3849 3053 c-13 -16 -12 -17 4 -4 16 13 21 21 13 21 -2 0 -10 -8 -17
-17z"/>
<path d="M4631 3004 c0 -11 3 -14 6 -6 3 7 2 16 -1 19 -3 4 -6 -2 -5 -13z"/>
<path d="M4641 2970 c0 -8 4 -24 9 -35 5 -13 9 -14 9 -5 0 8 -4 24 -9 35 -5
13 -9 14 -9 5z"/>
<path d="M4374 2925 c4 -27 10 -53 15 -58 12 -12 2 72 -11 93 -6 10 -7 -2 -4
-35z"/>
<path d="M4413 2930 c0 -25 2 -35 4 -22 2 12 2 32 0 45 -2 12 -4 2 -4 -23z"/>
<path d="M4530 2946 c0 -3 13 -56 29 -118 26 -102 46 -210 99 -541 9 -59 22
-109 27 -110 6 -1 14 37 19 85 8 74 6 104 -13 199 -33 166 -134 489 -152 489
-5 0 -9 -2 -9 -4z"/>
<path d="M3595 2802 c-12 -69 -20 -169 -22 -282 -2 -124 -6 -179 -15 -190 -36
-41 -108 -166 -108 -185 0 -12 9 -30 20 -40 11 -10 20 -28 20 -40 0 -25 15
-45 50 -69 35 -23 38 -21 45 32 3 26 13 62 21 80 7 18 14 46 14 62 0 16 5 32
11 35 6 4 8 13 5 21 -3 8 -2 24 3 37 5 12 14 40 21 62 7 22 15 46 18 53 3 10
-2 13 -18 10 -19 -2 -25 3 -31 27 -5 16 -6 39 -3 51 7 27 59 84 77 84 7 0 19
15 26 33 13 33 37 51 124 94 27 14 45 29 41 35 -4 6 -12 34 -18 62 l-12 51
-39 -2 c-22 -1 -69 -5 -105 -8 l-65 -7 -14 46 c-7 25 -17 48 -21 51 -4 2 -15
-44 -25 -103z m234 -14 c-1 -18 -2 -19 -6 -5 -6 24 -26 16 -34 -14 l-7 -24 -1
27 c-1 14 5 29 12 31 26 11 37 6 36 -15z m-112 -20 c-3 -8 -6 -5 -6 6 -1 11 2
17 5 13 3 -3 4 -12 1 -19z m28 -48 c-9 -41 -17 -33 -9 9 4 17 9 30 11 27 3 -2
2 -19 -2 -36z m104 -5 c0 -5 -4 -3 -9 5 -5 8 -9 22 -9 30 0 16 17 -16 18 -35z
m-142 13 c-3 -8 -6 -5 -6 6 -1 11 2 17 5 13 3 -3 4 -12 1 -19z"/>
<path d="M4043 2870 c0 -25 2 -35 4 -22 2 12 2 32 0 45 -2 12 -4 2 -4 -23z"/>
<path d="M4661 2884 c0 -11 3 -14 6 -6 3 7 2 16 -1 19 -3 4 -6 -2 -5 -13z"/>
<path d="M4671 2844 c0 -11 3 -14 6 -6 3 7 2 16 -1 19 -3 4 -6 -2 -5 -13z"/>
<path d="M4420 2810 c-2 -33 -2 -34 -10 -10 -11 30 -3 -53 10 -114 5 -22 7
-43 4 -47 -2 -5 5 -48 16 -96 26 -106 29 -117 35 -111 3 3 -2 39 -10 80 -9 41
-22 133 -29 204 -8 71 -15 113 -16 94z"/>
<path d="M4100 2795 c0 -23 5 -35 13 -35 8 0 19 -10 26 -22 6 -13 9 -16 7 -8
-3 8 -10 34 -17 58 -14 51 -29 55 -29 7z m17 -17 c-3 -8 -6 -5 -6 6 -1 11 2
17 5 13 3 -3 4 -12 1 -19z"/>
<path d="M4241 2814 c0 -11 3 -14 6 -6 3 7 2 16 -1 19 -3 4 -6 -2 -5 -13z"/>
<path d="M4640 2805 c0 -5 5 -17 10 -25 5 -8 10 -10 10 -5 0 6 -5 17 -10 25
-5 8 -10 11 -10 5z"/>
<path d="M4161 2794 c-2 -21 41 -148 71 -209 16 -33 22 -51 13 -40 -10 13 -25
19 -40 17 -15 -2 -25 2 -25 9 0 10 -3 10 -12 1 -7 -7 -22 -12 -33 -12 -52 0
-250 -93 -250 -117 0 -5 -23 -42 -51 -83 -62 -93 -107 -178 -139 -264 -14 -37
-25 -68 -25 -69 0 -2 13 -2 30 1 19 3 32 12 36 26 14 46 74 167 114 229 47 75
148 174 206 202 41 20 128 26 177 12 l28 -8 -33 31 -33 31 40 -23 c42 -23 56
-38 50 -49 -3 -3 7 -17 20 -29 26 -25 32 -22 15 8 -17 30 -83 235 -87 272 -5
44 -23 65 -23 27 0 -40 -25 -33 -37 11 -6 20 -11 32 -12 26z"/>
<path d="M4682 2775 c0 -16 2 -22 5 -12 2 9 2 23 0 30 -3 6 -5 -1 -5 -18z"/>
<path d="M4051 2775 c0 -11 4 -27 9 -35 9 -13 10 -13 9 0 0 8 -4 24 -9 35 l-9
20 0 -20z"/>
<path d="M3541 2764 c0 -11 3 -14 6 -6 3 7 2 16 -1 19 -3 4 -6 -2 -5 -13z"/>
<path d="M4688 2695 c-2 -20 2 -62 9 -93 l12 -57 -5 90 c-4 50 -8 91 -9 93 -2
2 -5 -13 -7 -33z"/>
<path d="M3531 2694 c0 -11 3 -14 6 -6 3 7 2 16 -1 19 -3 4 -6 -2 -5 -13z"/>
<path d="M4111 2700 c0 -8 4 -22 9 -30 12 -18 12 -2 0 25 -6 13 -9 15 -9 5z"/>
<path d="M4150 2701 c0 -6 4 -13 10 -16 6 -3 7 1 4 9 -7 18 -14 21 -14 7z"/>
<path d="M3522 2635 c0 -16 2 -22 5 -12 2 9 2 23 0 30 -3 6 -5 -1 -5 -18z"/>
<path d="M4130 2631 c0 -6 4 -13 10 -16 6 -3 7 1 4 9 -7 18 -14 21 -14 7z"/>
<path d="M4186 2627 c3 -10 9 -15 12 -12 3 3 0 11 -7 18 -10 9 -11 8 -5 -6z"/>
<path d="M4130 2595 c13 -14 26 -25 28 -25 3 0 -5 11 -18 25 -13 14 -26 25
-28 25 -3 0 5 -11 18 -25z"/>
<path d="M2778 2547 c36 -37 33 -46 -22 -67 -16 -6 -26 -13 -23 -16 7 -7 60
20 75 38 8 11 4 21 -19 46 -17 18 -33 32 -36 32 -4 0 8 -15 25 -33z"/>
<path d="M4711 2524 c0 -11 3 -14 6 -6 3 7 2 16 -1 19 -3 4 -6 -2 -5 -13z"/>
<path d="M409 2482 c12 -22 70 -77 75 -71 2 2 -16 23 -40 46 -25 23 -40 35
-35 25z"/>
<path d="M4722 2480 c0 -14 2 -19 5 -12 2 6 2 18 0 25 -3 6 -5 1 -5 -13z"/>
<path d="M3698 2468 c-22 -35 -30 -60 -17 -56 9 3 42 78 34 78 -1 0 -9 -10
-17 -22z"/>
<path d="M2677 2453 c-2 -5 -7 -21 -11 -38 -5 -22 -4 -26 4 -15 5 8 10 23 10
32 0 9 8 19 18 21 15 4 15 5 0 6 -9 0 -19 -2 -21 -6z"/>
<path d="M610 2429 c0 -5 5 -7 10 -4 6 3 10 8 10 11 0 2 -4 4 -10 4 -5 0 -10
-5 -10 -11z"/>
<path d="M3522 2415 c0 -16 2 -22 5 -12 2 9 2 23 0 30 -3 6 -5 -1 -5 -18z"/>
<path d="M650 2420 c8 -5 20 -10 25 -10 6 0 3 5 -5 10 -8 5 -19 10 -25 10 -5
0 -3 -5 5 -10z"/>
<path d="M4731 2414 c0 -11 3 -14 6 -6 3 7 2 16 -1 19 -3 4 -6 -2 -5 -13z"/>
<path d="M601 2394 c0 -11 3 -14 6 -6 3 7 2 16 -1 19 -3 4 -6 -2 -5 -13z"/>
<path d="M4322 2391 c13 -22 28 -28 28 -11 0 5 -9 14 -20 20 -19 10 -20 10 -8
-9z"/>
<path d="M559 2371 c26 -24 41 -27 41 -9 0 6 -3 8 -7 5 -3 -4 -18 0 -32 9
l-26 15 24 -20z"/>
<path d="M667 2372 c-19 -21 -22 -42 -6 -42 5 0 8 4 4 9 -3 5 2 17 11 26 9 9
14 18 12 21 -3 2 -12 -4 -21 -14z"/>
<path d="M3531 2354 c0 -11 3 -14 6 -6 3 7 2 16 -1 19 -3 4 -6 -2 -5 -13z"/>
<path d="M2571 2334 c0 -11 3 -14 6 -6 3 7 2 16 -1 19 -3 4 -6 -2 -5 -13z"/>
<path d="M2458 2289 c2 -16 7 -31 11 -34 4 -2 5 9 3 26 -2 16 -7 31 -11 34 -4
2 -5 -9 -3 -26z"/>
<path d="M2525 2280 c-16 -16 -26 -30 -23 -30 4 0 20 14 36 30 17 17 27 30 23
30 -4 0 -20 -13 -36 -30z"/>
<path d="M4371 2280 c0 -8 4 -22 9 -30 12 -18 12 -2 0 25 -6 13 -9 15 -9 5z"/>
<path d="M850 2215 c-14 -8 -20 -14 -14 -15 5 0 19 7 30 15 24 18 16 19 -16 0z"/>
<path d="M912 2210 c8 -14 21 -35 29 -47 7 -13 20 -25 27 -28 8 -3 -1 14 -19
37 -41 54 -57 70 -37 38z"/>
<path d="M2443 2223 c24 -6 22 -14 -15 -45 -18 -15 -30 -28 -26 -28 4 0 23 14
43 32 36 31 34 49 -5 47 -11 -1 -10 -3 3 -6z"/>
<path d="M4721 2194 c0 -11 3 -14 6 -6 3 7 2 16 -1 19 -3 4 -6 -2 -5 -13z"/>
<path d="M775 2190 c-8 -13 5 -13 25 0 13 8 13 10 -2 10 -9 0 -20 -4 -23 -10z"/>
<path d="M1032 2169 c10 -28 8 -33 -17 -57 -26 -24 -27 -26 -9 -39 10 -7 22
-13 28 -13 5 0 1 6 -10 14 -19 14 -19 15 4 39 17 18 21 31 16 51 -3 14 -10 29
-15 31 -4 3 -3 -8 3 -26z"/>
<path d="M1977 2171 l-37 -29 25 -16 c14 -9 25 -12 25 -6 0 6 -6 13 -14 16
-11 4 -6 13 17 34 41 37 33 38 -16 1z"/>
<path d="M2024 2145 c-3 -25 -4 -52 0 -60 8 -21 40 -19 67 5 l24 21 -33 -16
c-45 -22 -56 -12 -48 46 4 27 5 49 2 49 -3 0 -8 -20 -12 -45z"/>
<path d="M1002 2155 c-6 -14 -8 -25 -3 -25 8 0 23 41 17 47 -1 2 -8 -8 -14
-22z"/>
<path d="M2200 2122 c0 -5 6 -16 13 -26 12 -16 13 -16 13 3 0 11 -6 23 -13 25
-7 3 -13 2 -13 -2z"/>
<path d="M2335 2120 c-16 -7 -17 -9 -3 -9 9 -1 20 4 23 9 7 11 7 11 -20 0z"/>
<path d="M1200 2095 c0 -9 5 -13 11 -10 5 4 23 2 39 -5 16 -7 35 -10 42 -7 7
2 -3 9 -22 15 -19 5 -43 13 -52 17 -13 5 -18 2 -18 -10z"/>
<path d="M1743 2087 c-40 -21 -41 -23 -28 -47 12 -22 11 -26 -3 -32 -13 -5
-12 -7 7 -7 17 -1 21 3 17 14 -3 8 -9 22 -12 30 -4 10 6 22 30 36 20 11 36 23
36 25 0 6 0 5 -47 -19z"/>
<path d="M2263 2103 c9 -2 25 -2 35 0 9 3 1 5 -18 5 -19 0 -27 -2 -17 -5z"/>
<path d="M1396 2069 c-19 -31 -16 -59 6 -59 9 0 8 3 -2 10 -13 8 -13 13 3 41
23 41 17 48 -7 8z"/>
<path d="M1948 2093 c7 -3 16 -2 19 1 4 3 -2 6 -13 5 -11 0 -14 -3 -6 -6z"/>
<path d="M1877 2068 c-21 -11 -36 -22 -33 -25 5 -5 86 35 86 42 0 9 -14 4 -53
-17z"/>
<path d="M1794 2058 c-4 -14 -1 -25 8 -32 8 -6 17 -18 21 -26 3 -9 6 -3 6 14
1 22 -3 27 -15 22 -13 -5 -15 -1 -10 19 8 31 0 33 -10 3z"/>
<path d="M1075 2050 c17 -4 46 -8 65 -8 l35 0 -40 9 c-22 4 -51 8 -65 7 -23 0
-22 -1 5 -8z"/>
<path d="M2175 2050 c-28 -7 -28 -8 -5 -9 14 0 32 4 40 9 17 11 8 11 -35 0z"/>
<path d="M1513 2035 c-3 -9 -3 -18 -1 -21 3 -3 8 4 11 16 6 23 -1 27 -10 5z"/>
<path d="M1440 2030 c-13 -9 -13 -10 0 -9 8 0 24 4 35 9 l20 9 -20 0 c-11 0
-27 -4 -35 -9z"/>
<path d="M2132 1985 c0 -33 3 -80 7 -105 8 -41 9 -38 9 30 0 41 -4 89 -8 105
-6 24 -8 18 -8 -30z"/>
<path d="M1210 1915 c0 -49 2 -86 5 -83 7 7 8 158 1 165 -3 4 -6 -33 -6 -82z"/>
<path d="M1558 1983 c6 -2 18 -2 25 0 6 3 1 5 -13 5 -14 0 -19 -2 -12 -5z"/>
<path d="M1514 1867 c-2 -82 0 -101 6 -72 11 50 13 185 3 185 -5 0 -9 -51 -9
-113z"/>
<path d="M1831 1950 c0 -14 6 -47 14 -75 l15 -50 -7 55 c-3 30 -9 64 -14 75
-7 18 -8 18 -8 -5z"/>
<path d="M1861 1804 c0 -11 3 -14 6 -6 3 7 2 16 -1 19 -3 4 -6 -2 -5 -13z"/>
<path d="M2161 1744 c0 -11 3 -14 6 -6 3 7 2 16 -1 19 -3 4 -6 -2 -5 -13z"/>
<path d="M1194 1620 c0 -52 1 -74 3 -47 2 26 2 68 0 95 -2 26 -3 4 -3 -48z"/>
<path d="M1887 1610 c3 -41 7 -77 9 -79 8 -8 2 105 -6 129 -5 15 -6 -6 -3 -50z"/>
<path d="M1517 1620 c3 -30 7 -57 9 -59 8 -9 2 75 -6 94 -6 13 -7 1 -3 -35z"/>
<path d="M2182 1635 c0 -16 2 -22 5 -12 2 9 2 23 0 30 -3 6 -5 -1 -5 -18z"/>
<path d="M2192 1580 c0 -14 2 -19 5 -12 2 6 2 18 0 25 -3 6 -5 1 -5 -13z"/>
<path d="M1182 1480 c0 -19 2 -27 5 -17 2 9 2 25 0 35 -3 9 -5 1 -5 -18z"/>
<path d="M2208 1375 c3 -71 6 -132 8 -134 7 -8 2 163 -5 214 -5 30 -6 -1 -3
-80z"/>
<path d="M1902 1450 c0 -19 2 -27 5 -17 2 9 2 25 0 35 -3 9 -5 1 -5 -18z"/>
<path d="M1520 1403 c0 -21 -3 -137 -6 -258 -3 -121 -1 -242 3 -268 5 -30 9
64 10 258 1 168 0 305 -2 305 -3 0 -5 -17 -5 -37z"/>
<path d="M1912 1385 c0 -16 2 -22 5 -12 2 9 2 23 0 30 -3 6 -5 -1 -5 -18z"/>
<path d="M1191 1359 c1 -24 5 -57 10 -74 5 -19 6 -4 2 40 -6 79 -14 101 -12
34z"/>
<path d="M1922 1305 c-1 -11 3 -38 7 -60 7 -34 9 -35 9 -10 0 35 -15 101 -16
70z"/>
<path d="M1210 1234 c0 -22 38 -145 39 -127 1 13 -29 136 -35 142 -2 2 -4 -4
-4 -15z"/>
<path d="M2203 1195 c0 -22 2 -30 4 -17 2 12 2 30 0 40 -3 9 -5 -1 -4 -23z"/>
<path d="M1943 1135 c0 -22 2 -30 4 -17 2 12 2 30 0 40 -3 9 -5 -1 -4 -23z"/>
<path d="M2186 1074 c-4 -31 -5 -59 -2 -61 2 -3 8 21 11 52 4 31 5 58 3 61 -3
2 -8 -21 -12 -52z"/>
<path d="M1250 1084 c0 -14 44 -133 48 -129 5 4 -37 135 -44 135 -2 0 -4 -3
-4 -6z"/>
<path d="M1953 975 c0 -38 2 -53 4 -32 2 20 2 52 0 70 -2 17 -4 1 -4 -38z"/>
<path d="M1302 925 c0 -11 4 -31 8 -45 6 -20 8 -21 8 -5 0 11 -4 31 -8 45 -6
20 -8 21 -8 5z"/>
<path d="M2161 904 c0 -11 3 -14 6 -6 3 7 2 16 -1 19 -3 4 -6 -2 -5 -13z"/>
<path d="M1953 825 c0 -27 2 -38 4 -22 2 15 2 37 0 50 -2 12 -4 0 -4 -28z"/>
<path d="M1322 840 c0 -8 4 -26 8 -40 6 -20 8 -21 8 -5 0 11 -3 29 -8 40 -5
12 -8 14 -8 5z"/>
<path d="M2142 790 c0 -19 2 -27 5 -17 2 9 2 25 0 35 -3 9 -5 1 -5 -18z"/>
<path d="M1532 780 c0 -14 4 -38 8 -55 7 -27 8 -27 8 -5 0 14 -4 39 -8 55 -7
27 -8 27 -8 5z"/>
<path d="M1341 760 c-1 -19 19 -93 24 -88 2 2 -2 26 -10 53 -7 28 -14 43 -14
35z"/>
<path d="M2133 675 c0 -22 2 -30 4 -17 2 12 2 30 0 40 -3 9 -5 -1 -4 -23z"/>
<path d="M1932 660 c0 -14 2 -19 5 -12 2 6 2 18 0 25 -3 6 -5 1 -5 -13z"/>
<path d="M1561 634 c0 -11 3 -14 6 -6 3 7 2 16 -1 19 -3 4 -6 -2 -5 -13z"/>
<path d="M1920 612 c0 -11 -3 -27 -6 -36 -8 -20 51 -56 92 -56 47 0 116 41
125 73 l7 27 -29 -21 c-16 -11 -52 -23 -82 -26 -50 -5 -55 -4 -80 27 -23 27
-27 29 -27 12z m60 -62 c0 -5 -4 -10 -9 -10 -6 0 -13 5 -16 10 -3 6 1 10 9 10
9 0 16 -4 16 -10z"/>
<path d="M1372 590 c0 -14 2 -19 5 -12 2 6 2 18 0 25 -3 6 -5 1 -5 -13z"/>
<path d="M1576 569 c6 -44 4 -47 -29 -68 -19 -11 -47 -21 -62 -21 -35 0 -95
36 -96 58 0 13 -2 12 -9 -4 -13 -32 -9 -164 6 -208 8 -21 12 -42 9 -46 -6 -9
18 -131 34 -172 14 -36 82 -85 130 -93 51 -9 112 9 145 41 24 24 26 33 24 95
-1 37 -5 66 -10 63 -4 -3 -8 9 -8 27 0 31 -58 154 -68 144 -3 -3 1 -30 8 -60
26 -109 -19 -166 -113 -142 -50 13 -90 62 -112 140 -9 34 -21 73 -26 87 -4 14
-11 40 -14 59 l-7 34 29 -33 c24 -26 39 -33 79 -37 43 -5 54 -2 81 21 29 25
32 25 42 9 15 -26 13 -17 -14 72 -20 65 -24 71 -19 34z m-88 -117 c3 -9 -2
-13 -14 -10 -9 1 -19 9 -22 16 -3 9 2 13 14 10 9 -1 19 -9 22 -16z m-101 -74
c-3 -8 -6 -5 -6 6 -1 11 2 17 5 13 3 -3 4 -12 1 -19z m156 -254 c-3 -13 -26
-15 -42 -5 -8 5 -11 16 -7 26 6 16 8 16 29 2 12 -8 21 -18 20 -23z m-89 1 c9
-14 13 -25 8 -25 -5 0 -14 11 -20 25 -6 14 -10 25 -8 25 2 0 11 -11 20 -25z"/>
<path d="M2122 519 c-5 -14 -15 -43 -22 -65 -18 -61 -81 -145 -124 -167 -99
-52 -168 8 -132 114 l15 44 -25 -30 c-31 -39 -64 -106 -64 -132 0 -20 13 -39
68 -98 16 -17 19 -23 7 -15 -11 8 -28 23 -37 35 l-18 20 0 -21 c0 -36 44 -67
105 -72 45 -4 64 0 111 23 46 23 59 35 75 72 10 24 18 47 17 51 -1 4 4 21 11
37 7 17 13 45 14 62 1 18 6 33 10 33 5 0 6 19 3 43 -4 30 -3 36 3 22 9 -18 10
-18 10 5 0 14 -4 34 -9 45 -7 19 -8 19 -18 -6z m-335 -251 c-3 -7 -5 -2 -5 12
0 14 2 19 5 13 2 -7 2 -19 0 -25z m283 -37 c-5 -11 -15 -23 -21 -27 -6 -3 -3
5 6 20 20 30 30 35 15 7z m-100 -11 c0 -5 -12 -10 -26 -10 -14 0 -23 4 -19 10
3 6 15 10 26 10 10 0 19 -4 19 -10z"/>
<path d="M1886 505 c-9 -26 -7 -32 5 -12 6 10 9 21 6 23 -2 3 -7 -2 -11 -11z"/>
<path d="M1620 435 c0 -5 5 -17 10 -25 5 -8 10 -10 10 -5 0 6 -5 17 -10 25 -5
8 -10 11 -10 5z"/>
</g>
</svg>
